<svg width="1260" height="575" viewBox="0 0 1260 575" fill="none" xmlns="http://www.w3.org/2000/svg">
<g filter="url(#filter0_i_2237_1473)">
<path d="M11.2557 522.185L94.3697 522.185C102.562 522.185 110.441 525.326 116.386 530.962L151.742 564.483C157.687 570.119 165.567 573.26 173.759 573.26L1027.03 573.26C1036 573.26 1044.56 569.494 1050.62 562.88L1137.57 467.99C1143.64 461.376 1152.19 457.61 1161.17 457.61L1259.36 457.61" stroke="#F9F9F9" stroke-width="3"/>
</g>
<g filter="url(#filter1_i_2237_1473)">
<circle cx="172.363" cy="549.488" r="4" stroke="#F9F9F9" stroke-width="3"/>
</g>
<path d="M11.2969 574.76H177.297V520.637H11.2969V574.76Z" fill="url(#paint0_linear_2237_1473)"/>
<rect width="192" height="90.8848" transform="matrix(-1 -3.62343e-08 -2.10926e-07 1 1259.3 456)" fill="url(#paint1_linear_2237_1473)"/>
<g filter="url(#filter2_i_2237_1473)">
<path d="M-8.67167e-07 52.6123L178.8 52.6123C186.96 52.6123 194.811 49.4956 200.748 43.8994L236.451 10.2498C242.389 4.65358 250.24 1.53686 258.399 1.53686L1248 1.53685" stroke="#F9F9F9" stroke-width="3"/>
</g>
<g filter="url(#filter3_i_2237_1473)">
<circle cx="4" cy="4" r="4" transform="matrix(1 0 0 -1 257.746 29.3096)" stroke="#F9F9F9" stroke-width="3"/>
</g>
<path d="M0 54.1157H166V51.1079H0V54.1157Z" fill="url(#paint2_linear_2237_1473)"/>
<rect width="192" height="3.07227" transform="matrix(-1 -3.62343e-08 -2.10926e-07 1 1248 0)" fill="url(#paint3_linear_2237_1473)"/>
<defs>
<filter id="filter0_i_2237_1473" x="11.2559" y="456.11" width="1248.1" height="118.65" filterUnits="userSpaceOnUse" color-interpolation-filters="sRGB">
<feFlood flood-opacity="0" result="BackgroundImageFix"/>
<feBlend mode="normal" in="SourceGraphic" in2="BackgroundImageFix" result="shape"/>
<feColorMatrix in="SourceAlpha" type="matrix" values="0 0 0 0 0 0 0 0 0 0 0 0 0 0 0 0 0 0 127 0" result="hardAlpha"/>
<feOffset/>
<feGaussianBlur stdDeviation="1"/>
<feComposite in2="hardAlpha" operator="arithmetic" k2="-1" k3="1"/>
<feColorMatrix type="matrix" values="0 0 0 0 0 0 0 0 0 0 0 0 0 0 0 0 0 0 0.25 0"/>
<feBlend mode="normal" in2="shape" result="effect1_innerShadow_2237_1473"/>
</filter>
<filter id="filter1_i_2237_1473" x="166.863" y="543.988" width="11" height="11" filterUnits="userSpaceOnUse" color-interpolation-filters="sRGB">
<feFlood flood-opacity="0" result="BackgroundImageFix"/>
<feBlend mode="normal" in="SourceGraphic" in2="BackgroundImageFix" result="shape"/>
<feColorMatrix in="SourceAlpha" type="matrix" values="0 0 0 0 0 0 0 0 0 0 0 0 0 0 0 0 0 0 127 0" result="hardAlpha"/>
<feOffset/>
<feGaussianBlur stdDeviation="1"/>
<feComposite in2="hardAlpha" operator="arithmetic" k2="-1" k3="1"/>
<feColorMatrix type="matrix" values="0 0 0 0 0 0 0 0 0 0 0 0 0 0 0 0 0 0 0.25 0"/>
<feBlend mode="normal" in2="shape" result="effect1_innerShadow_2237_1473"/>
</filter>
<filter id="filter2_i_2237_1473" x="0" y="0.0366211" width="1248" height="54.0757" filterUnits="userSpaceOnUse" color-interpolation-filters="sRGB">
<feFlood flood-opacity="0" result="BackgroundImageFix"/>
<feBlend mode="normal" in="SourceGraphic" in2="BackgroundImageFix" result="shape"/>
<feColorMatrix in="SourceAlpha" type="matrix" values="0 0 0 0 0 0 0 0 0 0 0 0 0 0 0 0 0 0 127 0" result="hardAlpha"/>
<feOffset/>
<feGaussianBlur stdDeviation="1"/>
<feComposite in2="hardAlpha" operator="arithmetic" k2="-1" k3="1"/>
<feColorMatrix type="matrix" values="0 0 0 0 0 0 0 0 0 0 0 0 0 0 0 0 0 0 0.25 0"/>
<feBlend mode="normal" in2="shape" result="effect1_innerShadow_2237_1473"/>
</filter>
<filter id="filter3_i_2237_1473" x="256.246" y="19.8096" width="11" height="11" filterUnits="userSpaceOnUse" color-interpolation-filters="sRGB">
<feFlood flood-opacity="0" result="BackgroundImageFix"/>
<feBlend mode="normal" in="SourceGraphic" in2="BackgroundImageFix" result="shape"/>
<feColorMatrix in="SourceAlpha" type="matrix" values="0 0 0 0 0 0 0 0 0 0 0 0 0 0 0 0 0 0 127 0" result="hardAlpha"/>
<feOffset/>
<feGaussianBlur stdDeviation="1"/>
<feComposite in2="hardAlpha" operator="arithmetic" k2="-1" k3="1"/>
<feColorMatrix type="matrix" values="0 0 0 0 0 0 0 0 0 0 0 0 0 0 0 0 0 0 0.25 0"/>
<feBlend mode="normal" in2="shape" result="effect1_innerShadow_2237_1473"/>
</filter>
<linearGradient id="paint0_linear_2237_1473" x1="11.2969" y1="547.083" x2="177.297" y2="547.083" gradientUnits="userSpaceOnUse">
<stop offset="0.173681" stop-color="#F9F9FB"/>
<stop offset="1" stop-color="#F9F9FB" stop-opacity="0"/>
</linearGradient>
<linearGradient id="paint1_linear_2237_1473" x1="-2.76633e-06" y1="46.4751" x2="192" y2="46.4751" gradientUnits="userSpaceOnUse">
<stop offset="0.17166" stop-color="#F9F9FB"/>
<stop offset="1" stop-color="#F9F9FB" stop-opacity="0"/>
</linearGradient>
<linearGradient id="paint2_linear_2237_1473" x1="-2.39172e-06" y1="52.5776" x2="166" y2="52.5772" gradientUnits="userSpaceOnUse">
<stop offset="0.173681" stop-color="#F9F9FB"/>
<stop offset="1" stop-color="#F9F9FB" stop-opacity="0"/>
</linearGradient>
<linearGradient id="paint3_linear_2237_1473" x1="-2.76633e-06" y1="1.57104" x2="192" y2="1.57158" gradientUnits="userSpaceOnUse">
<stop offset="0.17166" stop-color="#F9F9FB"/>
<stop offset="1" stop-color="#F9F9FB" stop-opacity="0"/>
</linearGradient>
</defs>
</svg>
