<svg width="1260" height="373" viewBox="0 0 1260 373" fill="none" xmlns="http://www.w3.org/2000/svg">
<g filter="url(#filter0_i_2237_1403)">
<path d="M11.2557 320.3L94.3697 320.3C102.562 320.3 110.441 323.442 116.386 329.078L151.742 362.598C157.687 368.234 165.567 371.376 173.759 371.376L1027.03 371.376C1036 371.376 1044.56 367.609 1050.62 360.995L1137.57 266.105C1143.64 259.491 1152.19 255.725 1161.17 255.725L1259.36 255.725" stroke="#F9F9F9" stroke-width="3"/>
</g>
<g filter="url(#filter1_i_2237_1403)">
<circle cx="172.363" cy="347.604" r="4" stroke="#F9F9F9" stroke-width="3"/>
</g>
<path d="M11.2969 372.875H177.297V318.752H11.2969V372.875Z" fill="url(#paint0_linear_2237_1403)"/>
<rect width="192" height="90.8848" transform="matrix(-1 -3.62343e-08 -2.10926e-07 1 1259.3 254.115)" fill="url(#paint1_linear_2237_1403)"/>
<g filter="url(#filter2_i_2237_1403)">
<path d="M-8.67167e-07 52.6123L178.8 52.6123C186.96 52.6123 194.811 49.4956 200.748 43.8994L236.451 10.2498C242.389 4.65358 250.24 1.53686 258.399 1.53686L1248 1.53685" stroke="#F9F9F9" stroke-width="3"/>
</g>
<g filter="url(#filter3_i_2237_1403)">
<circle cx="4" cy="4" r="4" transform="matrix(1 0 0 -1 257.746 29.3096)" stroke="#F9F9F9" stroke-width="3"/>
</g>
<path d="M0 54.1157H166V51.1079H0V54.1157Z" fill="url(#paint2_linear_2237_1403)"/>
<rect width="192" height="3.07227" transform="matrix(-1 -3.62343e-08 -2.10926e-07 1 1248 0)" fill="url(#paint3_linear_2237_1403)"/>
<defs>
<filter id="filter0_i_2237_1403" x="11.2559" y="254.225" width="1248.1" height="118.65" filterUnits="userSpaceOnUse" color-interpolation-filters="sRGB">
<feFlood flood-opacity="0" result="BackgroundImageFix"/>
<feBlend mode="normal" in="SourceGraphic" in2="BackgroundImageFix" result="shape"/>
<feColorMatrix in="SourceAlpha" type="matrix" values="0 0 0 0 0 0 0 0 0 0 0 0 0 0 0 0 0 0 127 0" result="hardAlpha"/>
<feOffset/>
<feGaussianBlur stdDeviation="1"/>
<feComposite in2="hardAlpha" operator="arithmetic" k2="-1" k3="1"/>
<feColorMatrix type="matrix" values="0 0 0 0 0 0 0 0 0 0 0 0 0 0 0 0 0 0 0.25 0"/>
<feBlend mode="normal" in2="shape" result="effect1_innerShadow_2237_1403"/>
</filter>
<filter id="filter1_i_2237_1403" x="166.863" y="342.104" width="11" height="11" filterUnits="userSpaceOnUse" color-interpolation-filters="sRGB">
<feFlood flood-opacity="0" result="BackgroundImageFix"/>
<feBlend mode="normal" in="SourceGraphic" in2="BackgroundImageFix" result="shape"/>
<feColorMatrix in="SourceAlpha" type="matrix" values="0 0 0 0 0 0 0 0 0 0 0 0 0 0 0 0 0 0 127 0" result="hardAlpha"/>
<feOffset/>
<feGaussianBlur stdDeviation="1"/>
<feComposite in2="hardAlpha" operator="arithmetic" k2="-1" k3="1"/>
<feColorMatrix type="matrix" values="0 0 0 0 0 0 0 0 0 0 0 0 0 0 0 0 0 0 0.25 0"/>
<feBlend mode="normal" in2="shape" result="effect1_innerShadow_2237_1403"/>
</filter>
<filter id="filter2_i_2237_1403" x="0" y="0.0366211" width="1248" height="54.0757" filterUnits="userSpaceOnUse" color-interpolation-filters="sRGB">
<feFlood flood-opacity="0" result="BackgroundImageFix"/>
<feBlend mode="normal" in="SourceGraphic" in2="BackgroundImageFix" result="shape"/>
<feColorMatrix in="SourceAlpha" type="matrix" values="0 0 0 0 0 0 0 0 0 0 0 0 0 0 0 0 0 0 127 0" result="hardAlpha"/>
<feOffset/>
<feGaussianBlur stdDeviation="1"/>
<feComposite in2="hardAlpha" operator="arithmetic" k2="-1" k3="1"/>
<feColorMatrix type="matrix" values="0 0 0 0 0 0 0 0 0 0 0 0 0 0 0 0 0 0 0.25 0"/>
<feBlend mode="normal" in2="shape" result="effect1_innerShadow_2237_1403"/>
</filter>
<filter id="filter3_i_2237_1403" x="256.246" y="19.8096" width="11" height="11" filterUnits="userSpaceOnUse" color-interpolation-filters="sRGB">
<feFlood flood-opacity="0" result="BackgroundImageFix"/>
<feBlend mode="normal" in="SourceGraphic" in2="BackgroundImageFix" result="shape"/>
<feColorMatrix in="SourceAlpha" type="matrix" values="0 0 0 0 0 0 0 0 0 0 0 0 0 0 0 0 0 0 127 0" result="hardAlpha"/>
<feOffset/>
<feGaussianBlur stdDeviation="1"/>
<feComposite in2="hardAlpha" operator="arithmetic" k2="-1" k3="1"/>
<feColorMatrix type="matrix" values="0 0 0 0 0 0 0 0 0 0 0 0 0 0 0 0 0 0 0.25 0"/>
<feBlend mode="normal" in2="shape" result="effect1_innerShadow_2237_1403"/>
</filter>
<linearGradient id="paint0_linear_2237_1403" x1="11.2969" y1="345.198" x2="177.297" y2="345.198" gradientUnits="userSpaceOnUse">
<stop offset="0.173681" stop-color="#F9F9FB"/>
<stop offset="1" stop-color="#F9F9FB" stop-opacity="0"/>
</linearGradient>
<linearGradient id="paint1_linear_2237_1403" x1="-2.76633e-06" y1="46.4751" x2="192" y2="46.4751" gradientUnits="userSpaceOnUse">
<stop offset="0.17166" stop-color="#F9F9FB"/>
<stop offset="1" stop-color="#F9F9FB" stop-opacity="0"/>
</linearGradient>
<linearGradient id="paint2_linear_2237_1403" x1="-2.39172e-06" y1="52.5776" x2="166" y2="52.5772" gradientUnits="userSpaceOnUse">
<stop offset="0.173681" stop-color="#F9F9FB"/>
<stop offset="1" stop-color="#F9F9FB" stop-opacity="0"/>
</linearGradient>
<linearGradient id="paint3_linear_2237_1403" x1="-2.76633e-06" y1="1.57104" x2="192" y2="1.57158" gradientUnits="userSpaceOnUse">
<stop offset="0.17166" stop-color="#F9F9FB"/>
<stop offset="1" stop-color="#F9F9FB" stop-opacity="0"/>
</linearGradient>
</defs>
</svg>
