<svg width="48" height="49" viewBox="0 0 48 49" fill="none" xmlns="http://www.w3.org/2000/svg">
<g clip-path="url(#clip0_4_10155)">
<rect y="0.598145" width="48" height="48" rx="24" fill="#DBE5FF"/>
<g clip-path="url(#clip1_4_10155)">
<path d="M16.1827 14.2544H30.0856L30.1632 15.1681L30.5687 15.9768L30.4633 22.1304H16.1827V14.2544Z" fill="white"/>
<path d="M17.715 11.1008H24.5025V18.9768H17.715V11.1008Z" fill="white"/>
<path d="M30.3984 17.3999H32.0203V23.6667H30.3984V17.3999Z" fill="#BF7D3C"/>
<path d="M27.1464 18.9607H30.5766V21.144H27.1464V18.9607Z" fill="#BF7D3C"/>
<path d="M24.065 20.5698H27.4952V22.7208H24.065V20.5698Z" fill="#BF7D3C"/>
<path d="M19.2965 22.1143H24.0567V33.1843H19.2965V22.1143Z" fill="#BF7D3C"/>
<path d="M20.9186 38.8528H33.5772V44.6911H20.9186V38.8528Z" fill="#E14CF0"/>
<path d="M33.5448 39.3298H36.6507V47.2867H33.5448V39.3298Z" fill="#E7B7B5"/>
<path d="M22.0618 28.8582H30.1711V33.6937H22.0618V28.8582Z" fill="#E7B7B5"/>
<path d="M24.0652 23.5051H31.9474V30.8555H24.0652V23.5051Z" fill="#E7B7B5"/>
<path d="M24.8356 22.1304H30.796V29.2786H24.8356V22.1304Z" fill="#E7B7B5"/>
<path d="M33.5445 45.6777H35.0771V56.6912H33.5445V45.6777Z" fill="black"/>
<path d="M36.6504 39.3298H38.1831V47.2867H36.6504V39.3298Z" fill="black"/>
<path d="M35.0775 36.2571H36.6507V39.3299H35.0775V36.2571Z" fill="black"/>
<path d="M33.5445 33.1843H35.0771V36.2571H33.5445V33.1843Z" fill="black"/>
<path d="M32.0121 26.8367H33.5447V31.5995H32.0121V26.8367Z" fill="black"/>
<path d="M32.0121 17.3999H33.5447V20.5616H32.0121V17.3999Z" fill="black"/>
<path d="M30.4876 15.8232H32.0203V17.4081H30.4876V15.8232Z" fill="black"/>
<path d="M28.9544 14.2544H30.4871V15.8393H28.9544V14.2544Z" fill="black"/>
<path d="M24.0889 11.0928H25.6215V12.6777H24.0889V11.0928Z" fill="black"/>
<path d="M25.6236 14.2539H27.1507V15.7976H25.6236V14.2539Z" fill="#7756EF"/>
<path d="M24.0809 15.7969H25.6081V17.3131H24.0809L24.0809 15.7969Z" fill="#B39EFF"/>
<path d="M25.6065 15.7969H27.1151V17.3131H25.6065L25.6065 15.7969Z" fill="#CEC0FF"/>
<path d="M24.0809 14.2505H25.6081V15.7966H24.0809L24.0809 14.2505Z" fill="#CEC0FF"/>
<path d="M14.6499 14.2544H16.1825V23.7072H14.6499V14.2544Z" fill="black"/>
<path d="M16.1825 11.0928H17.7395V14.2545H16.1825V11.0928Z" fill="black"/>
<path d="M17.7395 9.50781H24.0891V11.0927H17.7395V9.50781Z" fill="black"/>
<path d="M25.6216 12.6694H28.9627V14.2543H25.6216V12.6694Z" fill="black"/>
<path d="M33.5445 20.5698H35.0771V26.8367H33.5445V20.5698Z" fill="black"/>
<path d="M30.3334 31.5994H33.5447V33.1843H30.3334V31.5994Z" fill="black"/>
<path d="M27.2438 47.1736H33.5447V50.4H27.2438V47.1736Z" fill="#7756EF"/>
<path d="M25.6706 45.6777H33.5447V47.206H25.6706V45.6777Z" fill="#7756EF"/>
<path d="M30.3334 44.1494H33.5447V45.6777H30.3334V44.1494Z" fill="#7756EF"/>
<path d="M35.0775 47.2869H36.6507V48.8394H35.0775V47.2869Z" fill="black"/>
<path d="M20.8862 42.4998H22.4918V45.6534H20.8862V42.4998Z" fill="black"/>
<path d="M19.2968 33.1843H20.9024V36.2571H19.2968V33.1843Z" fill="black"/>
<path d="M17.7473 28.5105H19.3043V33.1844H17.7473V28.5105Z" fill="black"/>
<path d="M16.1825 23.7073H17.7395V28.5105H16.1825V23.7073Z" fill="black"/>
<path d="M17.7399 34.656H19.3455V36.2571H17.7399V34.656Z" fill="black"/>
<path d="M20.8862 31.5833H22.4918V33.1843H20.8862V31.5833Z" fill="black"/>
<path d="M14.5935 41.0037H16.1667V53.5454H14.5935V41.0037Z" fill="black"/>
<path d="M16.1663 36.2571H17.7395V41.0037H16.1663V36.2571Z" fill="black"/>
<path d="M20.8857 47.2061H27.2434V53.5457H20.8857V47.2061Z" fill="#7756EF"/>
<path d="M16.1666 41.0037H19.313V53.5454H16.1666V41.0037Z" fill="#E7B7B5"/>
<path d="M19.3213 41.0037H20.8945V48.8392H19.3213V41.0037Z" fill="#C98B8B"/>
<path d="M33.5445 36.2571H35.0771V45.6776H33.5445V36.2571Z" fill="#C98B8B"/>
<path d="M27.2438 42.4998H33.5447V44.1494H27.2438V42.4998Z" fill="#F470FF"/>
<path d="M30.3334 33.1843H33.5447V34.8339H30.3334V33.1843Z" fill="#F470FF"/>
<path d="M20.8862 33.1843H22.4918V34.8339H20.8862V33.1843Z" fill="#F470FF"/>
<path d="M20.8861 34.6077H33.5447V39.4352H20.8861V34.6077Z" fill="#F470FF"/>
<path d="M22.4997 44.1494H30.3414V45.6777H22.4997V44.1494Z" fill="#F470FF"/>
<path d="M17.7476 36.2571H30.3414V41.0037H17.7476V36.2571Z" fill="#F470FF"/>
<path d="M20.8862 41.0037H22.4918V42.532H20.8862V41.0037Z" fill="#F470FF"/>
<path d="M20.8861 45.6533H25.6706V47.2059H20.8861V45.6533Z" fill="#E14CF0"/>
<path d="M22.4913 44.1331H27.2434V45.6856H22.4913V44.1331Z" fill="#E14CF0"/>
<path d="M22.4997 33.1843H30.3414V34.6075H22.4997V33.1843Z" fill="#C98B8B"/>
<path d="M30.3417 28.3408H32.0203V31.5996H30.3417V28.3408Z" fill="#C98B8B"/>
<path d="M28.7763 28.3408H30.3414V33.3705H28.7763V28.3408Z" fill="#C98B8B"/>
<path d="M27.2115 25.2678H28.7766V28.3406H27.2115V25.2678Z" fill="#C98B8B"/>
<path d="M28.7766 25.2678H30.3984V28.3406H28.7766V25.2678Z" fill="black"/>
<path d="M30.3984 26.8042H32.0203V28.3406H30.3984V26.8042Z" fill="white"/>
<path d="M30.3984 25.2678H32.0203V26.8042H30.3984V25.2678Z" fill="#D7E2FF"/>
<path d="M22.4916 28.5105H24.0567V30.0469H22.4916V28.5105Z" fill="white"/>
<path d="M22.4916 26.9741H24.0567V28.5105H22.4916V26.9741Z" fill="#D7E2FF"/>
<path d="M24.0564 26.9741H25.6215V30.0469H24.0564V26.9741Z" fill="black"/>
<path d="M22.4916 23.8772H24.0567V25.4378H22.4916V23.8772Z" fill="#C98B8B"/>
<path d="M24.0564 22.1304H25.6215V23.877H24.0564V22.1304Z" fill="#C98B8B"/>
<path d="M30.3984 22.1143H32.0203V23.7315H30.3984V22.1143Z" fill="#C98B8B"/>
<path d="M27.1466 20.5698H30.3984V22.1305H27.1466V20.5698Z" fill="#C98B8B"/>
<path d="M20.8862 28.5105H22.4918V31.5833H20.8862V28.5105Z" fill="#C98B8B"/>
<path d="M17.7473 25.2678H19.3043V28.5104H17.7473V25.2678Z" fill="#C98B8B"/>
<path d="M28.7766 23.7314H30.3984V25.2678H28.7766V23.7314Z" fill="#282828"/>
<path d="M30.3984 23.7314H32.0203V25.2678H30.3984V23.7314Z" fill="#AD6D6D"/>
<path d="M25.6297 26.9741H24.0646V25.4377H25.6297V26.9741Z" fill="#282828"/>
<path d="M24.0648 26.9741H22.4997V25.4377H24.0648V26.9741Z" fill="#AD6D6D"/>
<path d="M32.0121 20.5698H33.5447V26.8367H32.0121V20.5698Z" fill="#BF7D3C"/>
<path d="M27.1461 17.3918H30.4871V18.9606H27.1461V17.3918Z" fill="#E6A965"/>
<path d="M24.0571 18.9849H27.1468V20.5698H24.0571V18.9849Z" fill="#E6A965"/>
<path d="M20.967 20.5698H24.0567V22.1305H20.967V20.5698Z" fill="#E6A965"/>
<path d="M17.7473 23.7073H19.3043V25.2679H17.7473V23.7073Z" fill="#E6A965"/>
<path d="M22.3048 12.6694H25.6215V14.2543H22.3048V12.6694Z" fill="#D7E2FF"/>
<path d="M17.7473 15.8474H19.3043V17.4H17.7473V15.8474Z" fill="#D7E2FF"/>
<path d="M19.3051 14.2949H20.862V15.8475H19.3051V14.2949Z" fill="#D7E2FF"/>
<path d="M16.1827 20.5698H20.9753V22.1305H16.1827V20.5698Z" fill="#D7E2FF"/>
<path d="M16.1822 17.3999H19.3043V20.5697H16.1822V17.3999Z" fill="#D7E2FF"/>
<path d="M16.1822 22.0496H19.3043V23.7072H16.1822V22.0496Z" fill="#D7E2FF"/>
<path d="M26.2495 45.532C26.2495 46.0427 26.5736 46.6403 27.4216 47.2817C28.2592 47.9152 29.5115 48.5129 31.116 49.0261C34.3177 50.0503 38.7804 50.694 43.7381 50.694C48.6958 50.694 53.1585 50.0503 56.3602 49.0261C57.9647 48.5129 59.217 47.9152 60.0546 47.2817C60.9026 46.6403 61.2267 46.0427 61.2267 45.532C61.2267 45.0212 60.9026 44.4236 60.0546 43.7823C59.217 43.1488 57.9647 42.5511 56.3602 42.0378C53.1585 41.0136 48.6958 40.3699 43.7381 40.3699C38.7804 40.3699 34.3177 41.0136 31.116 42.0378C29.5115 42.5511 28.2592 43.1488 27.4216 43.7823C26.5736 44.4236 26.2495 45.0212 26.2495 45.532Z" fill="url(#paint0_linear_4_10155)" stroke="white" stroke-width="1.27156"/>
<path d="M58.5213 32.4971L59.9404 33.9122L59.3404 34.9391L57.7104 38.1979L56.0723 41.4566L54.4342 43.0577L52.8042 44.6911L47.8981 46.3165L43.0001 47.9499L38.913 48.5079L39.732 46.3165L41.362 43.0577L43.0001 38.1979L46.2681 36.5725L51.1662 34.9391L56.0723 33.3138L58.5213 32.4971Z" fill="#999999"/>
<path d="M47.898 44.6912H49.5361V46.3246H47.898V44.6912Z" fill="black"/>
<path d="M46.2603 46.3164H47.8984V47.9498H46.2603V46.3164Z" fill="black"/>
<path d="M44.6297 46.3164H46.2678V47.9498H44.6297V46.3164Z" fill="black"/>
<path d="M42.992 46.3164H44.6301V47.9498H42.992V46.3164Z" fill="black"/>
<path d="M41.3623 47.95H43.0003V49.5834H41.3623V47.95Z" fill="black"/>
<path d="M39.7238 47.95H41.3618V49.5834H39.7238V47.95Z" fill="black"/>
<path d="M47.898 34.939H49.5361V36.5724H47.898V34.939Z" fill="black"/>
<path d="M46.2603 34.939H47.8984V36.5724H46.2603V34.939Z" fill="black"/>
<path d="M44.6297 36.5725H46.2678V38.2059H44.6297V36.5725Z" fill="black"/>
<path d="M42.992 36.5725H44.6301V38.2059H42.992V36.5725Z" fill="black"/>
<path d="M38.094 47.95H39.7321V49.5834H38.094V47.95Z" fill="black"/>
<path d="M41.3623 41.4324H43.0003V43.0658H41.3623V41.4324Z" fill="#6D717A"/>
<path d="M41.3623 39.7988H43.0003V41.4323H41.3623V39.7988Z" fill="black"/>
<path d="M41.3623 38.1978H43.0003V39.8312H41.3623V38.1978Z" fill="black"/>
<path d="M40.9326 42.4998L40.1379 45.5078L38.1836 47.2868L34.8263 46.3165L34.3154 45.5078L34.8263 44.6911L38.0944 43.0577L40.9326 42.4998Z" fill="#999999"/>
<path d="M36.4563 46.3164H38.0944V47.9498H36.4563V46.3164Z" fill="black"/>
<path d="M34.8257 46.3164H36.4638V47.9498H34.8257V46.3164Z" fill="black"/>
<path d="M38.094 46.3164H39.7321V47.9498H38.094V46.3164Z" fill="black"/>
<path d="M38.1749 44.6912H41.3618V46.3246H38.1749V44.6912Z" fill="#6D717A"/>
<path d="M39.7238 43.0576H41.3618V44.691H39.7238V43.0576Z" fill="#6D717A"/>
<path d="M38.0938 41.4324H41.3618V43.0658H38.0938V41.4324Z" fill="black"/>
<path d="M34.8263 43.0576H38.0944V44.691H34.8263V43.0576Z" fill="black"/>
<path d="M33.188 44.6912H34.8261V46.3246H33.188V44.6912Z" fill="black"/>
<path d="M31.5582 44.6912H33.1963V46.3246H31.5582V44.6912Z" fill="black"/>
</g>
</g>
<rect x="2" y="2.59814" width="44" height="44" rx="22" stroke="#4A4A5A" stroke-width="4"/>
<defs>
<linearGradient id="paint0_linear_4_10155" x1="53.2747" y1="39.4268" x2="43.7713" y2="51.3562" gradientUnits="userSpaceOnUse">
<stop stop-color="white"/>
<stop offset="1" stop-color="#E4ECFF"/>
</linearGradient>
<clipPath id="clip0_4_10155">
<rect y="0.598145" width="48" height="48" rx="24" fill="white"/>
</clipPath>
<clipPath id="clip1_4_10155">
<rect width="54" height="57" fill="white" transform="matrix(-1 0 0 1 61.8626 9.50781)"/>
</clipPath>
</defs>
</svg>
