<svg width="49" height="49" viewBox="0 0 49 49" fill="none" xmlns="http://www.w3.org/2000/svg">
<g clip-path="url(#clip0_4_71)">
<rect x="0.399414" y="0.0982666" width="48" height="48" rx="24" fill="#DBE5FF"/>
<g clip-path="url(#clip1_4_71)">
<path d="M30.4018 44.1522H35.6772V47.6159H30.4018V44.1522Z" fill="#C900FC"/>
<path d="M42.5497 47.5889H44.2723V49.3162H42.5497V47.5889Z" fill="black"/>
<path d="M40.8894 45.8976H42.612V47.6609H40.8894V45.8976Z" fill="black"/>
<path d="M39.131 45.8976H40.8895V47.6609H39.131V45.8976Z" fill="black"/>
<path d="M37.4084 44.1702H39.131V45.8975H37.4084V44.1702Z" fill="black"/>
<path d="M35.6771 44.1522H37.3997V45.8975H35.6771V44.1522Z" fill="black"/>
<path d="M33.9459 42.4159H35.6685V44.1432H33.9459V42.4159Z" fill="black"/>
<path d="M33.9459 40.6886H35.6685V42.4159H33.9459V40.6886Z" fill="black"/>
<path d="M33.9459 38.9432H35.6685V40.6706H33.9459V38.9432Z" fill="black"/>
<path d="M35.6771 40.6886H37.3997V42.4159H35.6771V40.6886Z" fill="black"/>
<path d="M39.1309 42.4159H40.8535V44.1432H39.1309V42.4159Z" fill="black"/>
<path d="M40.8535 40.6886H42.576V42.4159H40.8535V40.6886Z" fill="black"/>
<path d="M42.5856 38.9523H44.3082V40.6796H42.5856V38.9523Z" fill="black"/>
<path d="M44.3081 37.2249H46.0307V38.9522H44.3081V37.2249Z" fill="black"/>
<path d="M44.3081 35.4976H46.0307V37.2249H44.3081V35.4976Z" fill="black"/>
<path d="M44.3081 32.0339H46.0307V33.7613H44.3081V32.0339Z" fill="black"/>
<path d="M44.3081 30.2976H46.0307V32.0249H44.3081V30.2976Z" fill="black"/>
<path d="M42.5856 30.2976H44.3082V32.0249H42.5856V30.2976Z" fill="black"/>
<path d="M42.5856 28.5702H44.3082V30.2975H42.5856V28.5702Z" fill="black"/>
<path d="M42.5856 26.8339H44.3082V28.5612H42.5856V26.8339Z" fill="black"/>
<path d="M46.0394 30.2976H47.762V32.0249H46.0394V30.2976Z" fill="black"/>
<path d="M47.6816 30.2976H49.5029V32.0249H47.6816V30.2976Z" fill="black"/>
<path d="M47.6816 32.0339H49.5029V33.7613H47.6816V32.0339Z" fill="black"/>
<path d="M47.6816 33.7612H49.5029V35.4886H47.6816V33.7612Z" fill="black"/>
<path d="M47.6816 35.4885H49.5029V37.2159H47.6816V35.4885Z" fill="black"/>
<path d="M47.7803 28.5522H49.5029V30.3965H47.7803V28.5522Z" fill="black"/>
<path d="M47.7803 26.825H49.5029V28.5523H47.7803V26.825Z" fill="black"/>
<path d="M44.3081 25.0975H46.0307V26.8249H44.3081V25.0975Z" fill="black"/>
<path d="M44.3081 23.3793H46.0307V25.1066H44.3081V23.3793Z" fill="black"/>
<path d="M45.9495 21.6519H47.8426V23.3792H45.9495V21.6519Z" fill="black"/>
<path d="M45.9406 13.3121H47.5824V14.9585H45.9406V13.3121Z" fill="black"/>
<path d="M44.3083 11.6747H45.9501V13.321H44.3083V11.6747Z" fill="black"/>
<path d="M42.6664 10.0283H44.3082V11.6747H42.6664V10.0283Z" fill="black"/>
<path d="M41.0245 8.38196H42.6663V10.0283H41.0245V8.38196Z" fill="black"/>
<path d="M41.0245 6.74463H42.6663V8.391H41.0245V6.74463Z" fill="black"/>
<path d="M41.0245 5.09827H42.6663V6.74463H41.0245V5.09827Z" fill="black"/>
<path d="M45.9406 11.6747H47.5824V13.321H45.9406V11.6747Z" fill="black"/>
<path d="M45.9406 10.0283H47.5824V11.6747H45.9406V10.0283Z" fill="black"/>
<path d="M44.3083 8.38196H45.9501V10.0283H44.3083V8.38196Z" fill="black"/>
<path d="M42.6664 6.74463H44.3082V8.391H42.6664V6.74463Z" fill="black"/>
<path d="M44.5948 20.0055H46.2366V21.6519H44.5948V20.0055Z" fill="black"/>
<path d="M45.7794 18.3591H47.4212V20.0055H45.7794V18.3591Z" fill="black"/>
<path d="M47.4125 16.7128H49.0543V18.3591H47.4125V16.7128Z" fill="black"/>
<path d="M47.7716 21.6519H49.4941V23.3792H47.7716V21.6519Z" fill="black"/>
<path d="M42.5856 33.7612H44.3082V35.4886H42.5856V33.7612Z" fill="black"/>
<path d="M40.8535 35.4976H42.576V37.2249H40.8535V35.4976Z" fill="black"/>
<path d="M39.1309 37.2249H40.8535V38.9522H39.1309V37.2249Z" fill="black"/>
<path d="M37.4084 35.4976H39.131V37.2249H37.4084V35.4976Z" fill="black"/>
<path d="M35.6771 33.7612H37.3997V35.4886H35.6771V33.7612Z" fill="black"/>
<path d="M33.9459 32.0339H35.6685V33.7613H33.9459V32.0339Z" fill="black"/>
<path d="M32.2233 30.2976H33.9459V32.0249H32.2233V30.2976Z" fill="black"/>
<path d="M37.4084 42.4159H39.131V44.3412H37.4084V42.4159Z" fill="black"/>
<path d="M13.2029 47.5889H14.9255V49.3162H13.2029V47.5889Z" fill="black"/>
<path d="M13.2029 45.8616H14.9255V47.5889H13.2029V45.8616Z" fill="black"/>
<path d="M13.2029 44.1343H14.9255V45.8616H13.2029V44.1343Z" fill="black"/>
<path d="M13.2029 42.3979H14.9255V44.1253H13.2029V42.3979Z" fill="black"/>
<path d="M13.2029 40.6705H14.9255V42.3979H13.2029V40.6705Z" fill="black"/>
<path d="M13.2029 38.9342H14.9255V40.6615H13.2029V38.9342Z" fill="black"/>
<path d="M14.9341 37.2069H16.6567V38.9342H14.9341V37.2069Z" fill="black"/>
<path d="M14.9341 35.4796H16.6567V37.2069H14.9341V35.4796Z" fill="black"/>
<path d="M16.6567 33.7433H18.3793V35.4706H16.6567V33.7433Z" fill="black"/>
<path d="M18.3792 33.7433H20.1018V35.4706H18.3792V33.7433Z" fill="black"/>
<path d="M23.5652 47.5889H25.2878V49.3162H23.5652V47.5889Z" fill="black"/>
<path d="M21.8339 47.5889H23.5565V49.3162H21.8339V47.5889Z" fill="black"/>
<path d="M20.1114 45.8616H21.834V47.5889H20.1114V45.8616Z" fill="black"/>
<path d="M20.1114 44.1343H21.834V45.8616H20.1114V44.1343Z" fill="black"/>
<path d="M11.3907 14.4636H13.0864V21.4899H11.3907V14.4636Z" fill="black"/>
<path d="M27.01 45.8885H30.4641V49.3522H27.01V45.8885Z" fill="#C900FC"/>
<path d="M32.1958 45.8976H39.131V49.3523H32.1958V45.8976Z" fill="#C900FC"/>
<path d="M37.3726 47.5889H39.1669V49.4062H37.3726V47.5889Z" fill="#BC8482"/>
<path d="M35.6768 37.2249H39.131V38.9522H35.6768V37.2249Z" fill="#BC8482"/>
<path d="M37.3993 38.9432H42.576V40.6706H37.3993V38.9432Z" fill="#BC8482"/>
<path d="M40.8894 47.5889H42.612V49.3162H40.8894V47.5889Z" fill="#BC8482"/>
<path d="M39.1669 47.5889H40.8895V49.3162H39.1669V47.5889Z" fill="#BC8482"/>
<path d="M20.1114 47.6069H21.834V49.3523H20.1114V47.6069Z" fill="#A36464"/>
<path d="M30.4647 47.6069H32.1962V49.3433H30.4647V47.6069Z" fill="#8400A5"/>
<path d="M32.1872 47.6069H33.9188V49.3433H32.1872V47.6069Z" fill="#8400A5"/>
<path d="M25.2877 47.5889H27.0103V49.3432H25.2877V47.5889Z" fill="#8400A5"/>
<path d="M33.9459 44.1522H35.6685V45.9065H33.9459V44.1522Z" fill="#8400A5"/>
<path d="M14.9255 50.3509V44.1343H20.1022V50.3509H14.9255Z" fill="#BC8482"/>
<path d="M14.9341 38.9342H16.6567V40.6615H14.9341V38.9342Z" fill="#00ACC4"/>
<path d="M20.1114 33.6173H21.834V35.4796H20.1114V33.6173Z" fill="#00ACC4"/>
<path d="M18.3613 44.1343H20.1018V45.8346H18.3613V44.1343Z" fill="#00ACC4"/>
<path d="M23.5562 45.8885H25.2878V47.5889H23.5562V45.8885Z" fill="#00ACC4"/>
<path d="M23.5562 44.2961H25.2878V45.9965H23.5562V44.2961Z" fill="#00ACC4"/>
<path d="M21.8337 40.7335H23.5652V42.4339H21.8337V40.7335Z" fill="#00ACC4"/>
<path d="M33.9369 37.2429H35.6685V38.9433H33.9369V37.2429Z" fill="#00ACC4"/>
<path d="M35.6769 35.4885H37.4085V37.1889H35.6769V35.4885Z" fill="#00ACC4"/>
<path d="M33.9369 35.4885H35.6685V37.3148H33.9369V35.4885Z" fill="#00ACC4"/>
<path d="M25.2877 45.8885H27.0103V47.5889H25.2877V45.8885Z" fill="#00ACC4"/>
<path d="M21.8247 42.4249H23.5652V47.5889H21.8247V42.4249Z" fill="#00ACC4"/>
<path d="M14.9252 40.6705H16.6567V42.3889H14.9252V40.6705Z" fill="#00E0FF"/>
<path d="M27.0197 32.0249H28.7512V45.8886H27.0197V32.0249Z" fill="#00E0FF"/>
<path d="M25.2875 32.0249H27.019V45.8886H25.2875V32.0249Z" fill="#00E0FF"/>
<path d="M23.5562 33.6173H25.2878V44.2962H23.5562V33.6173Z" fill="#00E0FF"/>
<path d="M21.8337 33.6173H23.5652V40.7336H21.8337V33.6173Z" fill="#00E0FF"/>
<path d="M28.7509 32.0249H30.4825V45.8886H28.7509V32.0249Z" fill="#00E0FF"/>
<path d="M30.4735 32.0339H32.205V44.1523H30.4735V32.0339Z" fill="#00E0FF"/>
<path d="M32.2047 32.0339H33.9363V44.1523H32.2047V32.0339Z" fill="#00E0FF"/>
<path d="M33.9369 33.7703H35.6685V35.4886H33.9369V33.7703Z" fill="#00E0FF"/>
<path d="M16.6483 35.4796H21.834V44.1343H16.6483V35.4796Z" fill="#00E0FF"/>
<path d="M16.5398 19.7266H28.894V10.964H18.2624V12.7273L16.5398 12.7453V19.7266Z" fill="white"/>
<path d="M18.263 10.964H22.2913V16.218H18.263V10.964Z" fill="white"/>
<path d="M23.5115 10.946H21.7166V12.723H23.5115V10.946Z" fill="#7756EF"/>
<path d="M28.8134 14.4727H30.6078V21.445H28.8134V14.4727Z" fill="#FC73FF"/>
<path d="M25.2251 16.209H29.0202V18.638H25.2251V16.209Z" fill="#FC73FF"/>
<path d="M21.8064 17.9902H25.6014V20.3833H21.8064V17.9902Z" fill="#FC73FF"/>
<path d="M16.5403 19.7177H21.8068V32.0339H16.5403V19.7177Z" fill="#FC73FF"/>
<path d="M20.0753 27.2118H28.5716V32.0249H20.0753V27.2118Z" fill="#BC8482"/>
<path d="M21.8065 21.256H30.5272V29.4338H21.8065V21.256Z" fill="#BC8482"/>
<path d="M22.6589 19.7267H29.2532V27.6796H22.6589V19.7267Z" fill="#BC8482"/>
<path d="M30.6083 24.9626H32.304V30.2616H30.6083V24.9626Z" fill="black"/>
<path d="M18.2628 9.20972H23.5293V10.973H18.2628V9.20972Z" fill="black"/>
<path d="M13.0951 12.7094H14.8177V14.4727H13.0951V12.7094Z" fill="black"/>
<path d="M14.8086 10.964H18.2628V12.7273H14.8086V10.964Z" fill="black"/>
<path d="M23.5294 9.20972H27.2258V10.973H23.5294V9.20972Z" fill="black"/>
<path d="M32.2949 16.2539H33.9906V24.9716H32.2949V16.2539Z" fill="black"/>
<path d="M28.7512 30.2706H32.304V32.034H28.7512V30.2706Z" fill="black"/>
<path d="M14.8176 26.825H16.5402V32.025H14.8176V26.825Z" fill="black"/>
<path d="M13.0951 21.481H14.8177V26.8249H13.0951V21.481Z" fill="black"/>
<path d="M18.2985 30.2526H20.1018V34.1211H18.2985V30.2526Z" fill="black"/>
<path d="M20.1019 32.0249H27.0103V33.6083H20.1019V32.0249Z" fill="#A36464"/>
<path d="M28.7506 26.645H30.6078V30.2706H28.7506V26.645Z" fill="#A36464"/>
<path d="M27.0197 26.645H28.7512V32.0339H27.0197V26.645Z" fill="#A36464"/>
<path d="M25.2875 23.2173H27.019V26.636H25.2875V23.2173Z" fill="#A36464"/>
<path d="M27.019 23.2173H28.8134V26.636H27.019V23.2173Z" fill="black"/>
<path d="M28.8134 24.9357H30.6078V26.645H28.8134V24.9357Z" fill="white"/>
<path d="M28.8134 23.2173H30.6078V24.9266H28.8134V23.2173Z" fill="#D7E2FF"/>
<path d="M20.0752 26.825H21.8068V28.5343H20.0752V26.825Z" fill="white"/>
<path d="M20.1111 25.1156H21.8068V26.8249H20.1111V25.1156Z" fill="#D7E2FF"/>
<path d="M21.8065 25.1156H23.5381V28.5343H21.8065V25.1156Z" fill="black"/>
<path d="M20.1111 21.6699H21.8068V23.4063H20.1111V21.6699Z" fill="#A36464"/>
<path d="M21.8065 19.7267H23.5381V21.6699H21.8065V19.7267Z" fill="#A36464"/>
<path d="M28.8134 19.7177H30.6078V21.517H28.8134V19.7177Z" fill="#A36464"/>
<path d="M25.2254 17.9902H28.8231V19.7266H25.2254V17.9902Z" fill="#A36464"/>
<path d="M18.2985 26.825H20.1018V30.2436H18.2985V26.825Z" fill="#A36464"/>
<path d="M14.8176 23.2173H16.5402V26.8249H14.8176V23.2173Z" fill="#A36464"/>
<path d="M27.019 21.5079H28.8134V23.2173H27.019V21.5079Z" fill="#282828"/>
<path d="M28.8134 21.5079H30.6078V23.2173H28.8134V21.5079Z" fill="#844D4D"/>
<path d="M23.5383 25.1245H21.8068V23.4152H23.5383V25.1245Z" fill="#282828"/>
<path d="M21.7975 25.1245H20.1018V23.4152H21.7975V25.1245Z" fill="#844D4D"/>
<path d="M30.6083 17.9902H32.304V24.9626H30.6083V17.9902Z" fill="#FC73FF"/>
<path d="M25.2248 14.4547H28.9211V16.2H25.2248V14.4547Z" fill="#8B3D39"/>
<path d="M21.7977 16.2269H25.2159V17.9903H21.7977V16.2269Z" fill="#8B3D39"/>
<path d="M18.3885 17.9902H21.8068V19.7266H18.3885V17.9902Z" fill="#8B3D39"/>
<path d="M14.8176 21.481H16.5402V23.2173H14.8176V21.481Z" fill="#8B3D39"/>
<path d="M14.8176 12.7454H16.5402V14.4727H14.8176V12.7454Z" fill="#D7E2FF"/>
<path d="M13.0857 17.9902H18.3881V19.7266H13.0857V17.9902Z" fill="#D7E2FF"/>
<path d="M13.0861 14.4636H16.5402V17.9903H13.0861V14.4636Z" fill="#D7E2FF"/>
<path d="M13.0861 19.6367H16.5402V21.481H13.0861V19.6367Z" fill="#D7E2FF"/>
<path d="M14.8179 17.9993H16.5674V21.4809H14.8179V17.9993Z" fill="#C900FC"/>
<path d="M20.0573 14.4996H21.8068V16.254H20.0573V14.4996Z" fill="#A7BFFF"/>
<path d="M18.3076 14.4996H20.0571V16.254H18.3076V14.4996Z" fill="#A7BFFF"/>
<path d="M20.0573 12.7273H21.8068V14.4996H20.0573V12.7273Z" fill="#A7BFFF"/>
<path d="M23.4664 10.964H25.2159V12.7363H23.4664V10.964Z" fill="#A7BFFF"/>
<path d="M32.2411 12.6464H33.9906V16.254H32.2411V12.6464Z" fill="#A7BFFF"/>
<path d="M30.6083 10.928H32.304V17.9993H30.6083V10.928Z" fill="#A7BFFF"/>
<path d="M16.5672 16.2539H21.8068V19.7266H16.5672V16.2539Z" fill="#A7BFFF"/>
<path d="M21.7977 12.7273H25.2159V17.9903H21.7977V12.7273Z" fill="#A7BFFF"/>
<path d="M25.2157 10.847H30.6078V16.254H25.2157V10.847Z" fill="#A7BFFF"/>
<path d="M33.9908 12.6464H35.7403V16.254H33.9908V12.6464Z" fill="black"/>
<path d="M24.7049 9.20972H28.9755V10.973H24.7049V9.20972Z" fill="black"/>
<path d="M28.9748 9.20972H30.7243V10.973H28.9748V9.20972Z" fill="black"/>
<path d="M30.5545 9.20972H32.304V10.973H30.5545V9.20972Z" fill="black"/>
<path d="M32.2949 10.964H33.9906V12.6373H32.2949V10.964Z" fill="black"/>
<path d="M14.8085 17.9902H16.549V21.4899H14.8085V17.9902Z" fill="#799EFF"/>
<path d="M16.5581 16.2269H18.2986V19.7176H16.5581V16.2269Z" fill="#799EFF"/>
<path d="M18.3078 17.9723H20.0483V19.7176H18.3078V17.9723Z" fill="#799EFF"/>
<path d="M14.9341 44.1252H16.6567V45.8706H14.9341V44.1252Z" fill="#A36464"/>
<path d="M35.6771 38.9523H37.3997V40.6976H35.6771V38.9523Z" fill="#A36464"/>
<path d="M37.4084 40.6886H39.131V42.4159H37.4084V40.6886Z" fill="#A36464"/>
<path d="M39.1309 40.6886H40.8535V42.4159H39.1309V40.6886Z" fill="#A36464"/>
<path d="M40.8535 37.2249H42.576V38.9522H40.8535V37.2249Z" fill="#A36464"/>
<path d="M42.5856 37.2249H44.3082V38.9522H42.5856V37.2249Z" fill="#BC8482"/>
<path d="M42.5856 35.4976H44.3082V37.2249H42.5856V35.4976Z" fill="#A36464"/>
<path d="M14.9341 42.3799H16.6567V44.1252H14.9341V42.3799Z" fill="#A36464"/>
<path d="M16.6568 35.4796H18.2986V37.2069H16.6568V35.4796Z" fill="#00ACC4"/>
<path d="M46.0302 28.5522H47.7708V30.2976H46.0302V28.5522Z" fill="#272B35"/>
<path d="M44.2902 28.5522H46.0307V30.2976H44.2902V28.5522Z" fill="#272B35"/>
<path d="M46.0302 26.825H47.7708V28.5703H46.0302V26.825Z" fill="#272B35"/>
<path d="M47.7716 25.0886H49.4941V26.816H47.7716V25.0886Z" fill="#272B35"/>
<path d="M47.7716 23.3793H49.4941V25.1066H47.7716V23.3793Z" fill="#272B35"/>
<path d="M45.9495 25.0886H47.7708V26.816H45.9495V25.0886Z" fill="#3C404C"/>
<path d="M45.9495 23.3793H47.7708V25.1066H45.9495V23.3793Z" fill="#3C404C"/>
<path d="M42.6664 8.38196H44.3082V10.0283H42.6664V8.38196Z" fill="#FFFF83"/>
<path d="M44.3083 10.0283H45.9501V11.6747H44.3083V10.0283Z" fill="#FFFF83"/>
<path d="M44.3081 26.8339H46.0307V28.5612H44.3081V26.8339Z" fill="#3C404C"/>
<path d="M33.9187 47.5889H35.6413V49.3162H33.9187V47.5889Z" fill="black"/>
<path d="M32.2861 45.8616H33.9459V47.5889H32.2861V45.8616Z" fill="black"/>
<path d="M30.4553 45.8616H32.2856V47.5889H30.4553V45.8616Z" fill="black"/>
<path d="M28.8227 44.1432H30.4825V45.8705H28.8227V44.1432Z" fill="black"/>
<path d="M27.7012 44.1432H29.361V45.8705H27.7012V44.1432Z" fill="black"/>
<path d="M26.0418 44.1432H27.7015V45.8705H26.0418V44.1432Z" fill="black"/>
<path d="M25.2786 44.1432H26.9384V45.8705H25.2786V44.1432Z" fill="black"/>
<path d="M23.628 45.8795H25.2878V47.6069H23.628V45.8795Z" fill="black"/>
</g>
</g>
<rect x="2.39941" y="2.09827" width="44" height="44" rx="22" stroke="#4A4A5A" stroke-width="4"/>
<defs>
<clipPath id="clip0_4_71">
<rect x="0.399414" y="0.0982666" width="48" height="48" rx="24" fill="white"/>
</clipPath>
<clipPath id="clip1_4_71">
<rect width="50" height="65" fill="white" transform="matrix(-1 0 0 1 61.3994 5.09827)"/>
</clipPath>
</defs>
</svg>
