<svg width="1289" height="528" viewBox="0 0 1289 528" fill="none" xmlns="http://www.w3.org/2000/svg">
<g filter="url(#filter0_i_2657_26715)">
<path d="M112.625 109.622C112.625 112.023 114.571 113.969 116.972 113.969H1171.76C1174.16 113.969 1176.1 112.023 1176.1 109.622V1.30371C1176.1 0.583692 1176.69 0 1177.41 0V0C1178.13 0 1178.71 0.583691 1178.71 1.30371V109.622C1178.71 112.023 1180.66 113.969 1183.06 113.969H1287.37C1288.09 113.969 1288.67 114.552 1288.67 115.272V115.272C1288.67 115.992 1288.09 116.576 1287.37 116.576H1183.06C1180.66 116.576 1178.71 118.522 1178.71 120.923V517.034C1178.71 519.435 1180.66 521.381 1183.06 521.381H1287.44C1288.16 521.381 1288.74 521.965 1288.74 522.685V522.685C1288.74 523.405 1288.16 523.988 1287.44 523.988H1.37207C0.652052 523.988 0.0683594 523.405 0.0683594 522.685V522.685C0.0683594 521.965 0.652051 521.381 1.37207 521.381H105.671C108.072 521.381 110.018 519.435 110.018 517.034V120.923C110.018 118.522 108.072 116.576 105.671 116.576H1.30371C0.583689 116.576 0 115.992 0 115.272V115.272C0 114.552 0.583691 113.969 1.30371 113.969H105.671C108.072 113.969 110.018 112.023 110.018 109.622V1.30371C110.018 0.583692 110.601 0 111.321 0V0C112.041 0 112.625 0.583691 112.625 1.30371V109.622ZM116.972 116.576C114.571 116.576 112.625 118.522 112.625 120.923V517.034C112.625 519.435 114.571 521.381 116.972 521.381H1171.76C1174.16 521.381 1176.1 519.435 1176.1 517.034V120.923C1176.1 118.522 1174.16 116.576 1171.76 116.576H116.972Z" fill="#F9F9F9"/>
</g>
<path d="M0 113.959H112.591V523.988H0V113.959Z" fill="url(#paint0_linear_2657_26715)"/>
<path d="M1288.64 528L1176.15 528L1176.15 83.7264L1288.64 83.7264L1288.64 528Z" fill="url(#paint1_linear_2657_26715)"/>
<path d="M1185.19 0.000732422L1185.19 112.491L106.362 112.491L106.362 0.000745287L1185.19 0.000732422Z" fill="url(#paint2_linear_2657_26715)"/>
<rect x="119.316" y="123.097" width="12.7983" height="19.6379" fill="white"/>
<rect x="1156.77" y="125.154" width="12.7983" height="15.4792" fill="white"/>
<rect x="119.316" y="501.291" width="12.7983" height="16.125" fill="white"/>
<rect x="1155.2" y="503.376" width="12.7983" height="12.7237" fill="white"/>
<g filter="url(#filter1_i_2657_26715)">
<circle cx="3.47727" cy="3.47727" r="3.47727" transform="matrix(1 0 0 -1 122.506 511.13)" stroke="#F9F9F9" stroke-width="2.60795"/>
</g>
<g filter="url(#filter2_i_2657_26715)">
<circle cx="3.47727" cy="3.47727" r="3.47727" transform="matrix(1 0 0 -1 93.4336 511.13)" stroke="#F9F9F9" stroke-width="2.60795"/>
</g>
<g filter="url(#filter3_i_2657_26715)">
<circle cx="3.47727" cy="3.47727" r="3.47727" transform="matrix(1 0 0 -1 1159.69 511.13)" stroke="#F9F9F9" stroke-width="2.60795"/>
</g>
<g filter="url(#filter4_i_2657_26715)">
<circle cx="3.47727" cy="3.47727" r="3.47727" transform="matrix(1 0 0 -1 1188 511.13)" stroke="#F9F9F9" stroke-width="2.60795"/>
</g>
<g filter="url(#filter5_i_2657_26715)">
<circle cx="3.47727" cy="3.47727" r="3.47727" transform="matrix(1 0 0 -1 122.506 133.31)" stroke="#F9F9F9" stroke-width="2.60795"/>
</g>
<g filter="url(#filter6_i_2657_26715)">
<circle cx="3.47727" cy="3.47727" r="3.47727" transform="matrix(1 0 0 -1 122.506 104.726)" stroke="#F9F9F9" stroke-width="2.60795"/>
</g>
<g filter="url(#filter7_i_2657_26715)">
<circle cx="3.47727" cy="3.47727" r="3.47727" transform="matrix(1 0 0 -1 1188 104.726)" stroke="#F9F9F9" stroke-width="2.60795"/>
</g>
<g filter="url(#filter8_i_2657_26715)">
<circle cx="3.47727" cy="3.47727" r="3.47727" transform="matrix(1 0 0 -1 93.4336 133.31)" stroke="#F9F9F9" stroke-width="2.60795"/>
</g>
<g filter="url(#filter9_i_2657_26715)">
<circle cx="3.47727" cy="3.47727" r="3.47727" transform="matrix(1 0 0 -1 93.4336 104.726)" stroke="#F9F9F9" stroke-width="2.60795"/>
</g>
<g filter="url(#filter10_i_2657_26715)">
<circle cx="3.47727" cy="3.47727" r="3.47727" transform="matrix(1 0 0 -1 1159.69 104.726)" stroke="#F9F9F9" stroke-width="2.60795"/>
</g>
<g filter="url(#filter11_i_2657_26715)">
<circle cx="3.47727" cy="3.47727" r="3.47727" transform="matrix(1 0 0 -1 1159.69 133.31)" stroke="#F9F9F9" stroke-width="2.60795"/>
</g>
<g filter="url(#filter12_i_2657_26715)">
<circle cx="3.47727" cy="3.47727" r="3.47727" transform="matrix(1 0 0 -1 1188 133.31)" stroke="#F9F9F9" stroke-width="2.60795"/>
</g>
<path d="M18 528L18 393L1266 393L1266 528L18 528Z" fill="url(#paint3_linear_2657_26715)"/>
<defs>
<filter id="filter0_i_2657_26715" x="0" y="0" width="1288.74" height="523.988" filterUnits="userSpaceOnUse" color-interpolation-filters="sRGB">
<feFlood flood-opacity="0" result="BackgroundImageFix"/>
<feBlend mode="normal" in="SourceGraphic" in2="BackgroundImageFix" result="shape"/>
<feColorMatrix in="SourceAlpha" type="matrix" values="0 0 0 0 0 0 0 0 0 0 0 0 0 0 0 0 0 0 127 0" result="hardAlpha"/>
<feOffset/>
<feGaussianBlur stdDeviation="0.869317"/>
<feComposite in2="hardAlpha" operator="arithmetic" k2="-1" k3="1"/>
<feColorMatrix type="matrix" values="0 0 0 0 0 0 0 0 0 0 0 0 0 0 0 0 0 0 0.25 0"/>
<feBlend mode="normal" in2="shape" result="effect1_innerShadow_2657_26715"/>
</filter>
<filter id="filter1_i_2657_26715" x="121.201" y="502.872" width="9.5625" height="9.5625" filterUnits="userSpaceOnUse" color-interpolation-filters="sRGB">
<feFlood flood-opacity="0" result="BackgroundImageFix"/>
<feBlend mode="normal" in="SourceGraphic" in2="BackgroundImageFix" result="shape"/>
<feColorMatrix in="SourceAlpha" type="matrix" values="0 0 0 0 0 0 0 0 0 0 0 0 0 0 0 0 0 0 127 0" result="hardAlpha"/>
<feOffset/>
<feGaussianBlur stdDeviation="0.869317"/>
<feComposite in2="hardAlpha" operator="arithmetic" k2="-1" k3="1"/>
<feColorMatrix type="matrix" values="0 0 0 0 0 0 0 0 0 0 0 0 0 0 0 0 0 0 0.25 0"/>
<feBlend mode="normal" in2="shape" result="effect1_innerShadow_2657_26715"/>
</filter>
<filter id="filter2_i_2657_26715" x="92.1289" y="502.872" width="9.5625" height="9.5625" filterUnits="userSpaceOnUse" color-interpolation-filters="sRGB">
<feFlood flood-opacity="0" result="BackgroundImageFix"/>
<feBlend mode="normal" in="SourceGraphic" in2="BackgroundImageFix" result="shape"/>
<feColorMatrix in="SourceAlpha" type="matrix" values="0 0 0 0 0 0 0 0 0 0 0 0 0 0 0 0 0 0 127 0" result="hardAlpha"/>
<feOffset/>
<feGaussianBlur stdDeviation="0.869317"/>
<feComposite in2="hardAlpha" operator="arithmetic" k2="-1" k3="1"/>
<feColorMatrix type="matrix" values="0 0 0 0 0 0 0 0 0 0 0 0 0 0 0 0 0 0 0.25 0"/>
<feBlend mode="normal" in2="shape" result="effect1_innerShadow_2657_26715"/>
</filter>
<filter id="filter3_i_2657_26715" x="1158.39" y="502.872" width="9.5625" height="9.5625" filterUnits="userSpaceOnUse" color-interpolation-filters="sRGB">
<feFlood flood-opacity="0" result="BackgroundImageFix"/>
<feBlend mode="normal" in="SourceGraphic" in2="BackgroundImageFix" result="shape"/>
<feColorMatrix in="SourceAlpha" type="matrix" values="0 0 0 0 0 0 0 0 0 0 0 0 0 0 0 0 0 0 127 0" result="hardAlpha"/>
<feOffset/>
<feGaussianBlur stdDeviation="0.869317"/>
<feComposite in2="hardAlpha" operator="arithmetic" k2="-1" k3="1"/>
<feColorMatrix type="matrix" values="0 0 0 0 0 0 0 0 0 0 0 0 0 0 0 0 0 0 0.25 0"/>
<feBlend mode="normal" in2="shape" result="effect1_innerShadow_2657_26715"/>
</filter>
<filter id="filter4_i_2657_26715" x="1186.69" y="502.872" width="9.5625" height="9.5625" filterUnits="userSpaceOnUse" color-interpolation-filters="sRGB">
<feFlood flood-opacity="0" result="BackgroundImageFix"/>
<feBlend mode="normal" in="SourceGraphic" in2="BackgroundImageFix" result="shape"/>
<feColorMatrix in="SourceAlpha" type="matrix" values="0 0 0 0 0 0 0 0 0 0 0 0 0 0 0 0 0 0 127 0" result="hardAlpha"/>
<feOffset/>
<feGaussianBlur stdDeviation="0.869317"/>
<feComposite in2="hardAlpha" operator="arithmetic" k2="-1" k3="1"/>
<feColorMatrix type="matrix" values="0 0 0 0 0 0 0 0 0 0 0 0 0 0 0 0 0 0 0.25 0"/>
<feBlend mode="normal" in2="shape" result="effect1_innerShadow_2657_26715"/>
</filter>
<filter id="filter5_i_2657_26715" x="121.201" y="125.052" width="9.5625" height="9.5625" filterUnits="userSpaceOnUse" color-interpolation-filters="sRGB">
<feFlood flood-opacity="0" result="BackgroundImageFix"/>
<feBlend mode="normal" in="SourceGraphic" in2="BackgroundImageFix" result="shape"/>
<feColorMatrix in="SourceAlpha" type="matrix" values="0 0 0 0 0 0 0 0 0 0 0 0 0 0 0 0 0 0 127 0" result="hardAlpha"/>
<feOffset/>
<feGaussianBlur stdDeviation="0.869317"/>
<feComposite in2="hardAlpha" operator="arithmetic" k2="-1" k3="1"/>
<feColorMatrix type="matrix" values="0 0 0 0 0 0 0 0 0 0 0 0 0 0 0 0 0 0 0.25 0"/>
<feBlend mode="normal" in2="shape" result="effect1_innerShadow_2657_26715"/>
</filter>
<filter id="filter6_i_2657_26715" x="121.201" y="96.4678" width="9.5625" height="9.5625" filterUnits="userSpaceOnUse" color-interpolation-filters="sRGB">
<feFlood flood-opacity="0" result="BackgroundImageFix"/>
<feBlend mode="normal" in="SourceGraphic" in2="BackgroundImageFix" result="shape"/>
<feColorMatrix in="SourceAlpha" type="matrix" values="0 0 0 0 0 0 0 0 0 0 0 0 0 0 0 0 0 0 127 0" result="hardAlpha"/>
<feOffset/>
<feGaussianBlur stdDeviation="0.869317"/>
<feComposite in2="hardAlpha" operator="arithmetic" k2="-1" k3="1"/>
<feColorMatrix type="matrix" values="0 0 0 0 0 0 0 0 0 0 0 0 0 0 0 0 0 0 0.25 0"/>
<feBlend mode="normal" in2="shape" result="effect1_innerShadow_2657_26715"/>
</filter>
<filter id="filter7_i_2657_26715" x="1186.69" y="96.4678" width="9.5625" height="9.5625" filterUnits="userSpaceOnUse" color-interpolation-filters="sRGB">
<feFlood flood-opacity="0" result="BackgroundImageFix"/>
<feBlend mode="normal" in="SourceGraphic" in2="BackgroundImageFix" result="shape"/>
<feColorMatrix in="SourceAlpha" type="matrix" values="0 0 0 0 0 0 0 0 0 0 0 0 0 0 0 0 0 0 127 0" result="hardAlpha"/>
<feOffset/>
<feGaussianBlur stdDeviation="0.869317"/>
<feComposite in2="hardAlpha" operator="arithmetic" k2="-1" k3="1"/>
<feColorMatrix type="matrix" values="0 0 0 0 0 0 0 0 0 0 0 0 0 0 0 0 0 0 0.25 0"/>
<feBlend mode="normal" in2="shape" result="effect1_innerShadow_2657_26715"/>
</filter>
<filter id="filter8_i_2657_26715" x="92.1289" y="125.052" width="9.5625" height="9.5625" filterUnits="userSpaceOnUse" color-interpolation-filters="sRGB">
<feFlood flood-opacity="0" result="BackgroundImageFix"/>
<feBlend mode="normal" in="SourceGraphic" in2="BackgroundImageFix" result="shape"/>
<feColorMatrix in="SourceAlpha" type="matrix" values="0 0 0 0 0 0 0 0 0 0 0 0 0 0 0 0 0 0 127 0" result="hardAlpha"/>
<feOffset/>
<feGaussianBlur stdDeviation="0.869317"/>
<feComposite in2="hardAlpha" operator="arithmetic" k2="-1" k3="1"/>
<feColorMatrix type="matrix" values="0 0 0 0 0 0 0 0 0 0 0 0 0 0 0 0 0 0 0.25 0"/>
<feBlend mode="normal" in2="shape" result="effect1_innerShadow_2657_26715"/>
</filter>
<filter id="filter9_i_2657_26715" x="92.1289" y="96.4675" width="9.5625" height="9.5625" filterUnits="userSpaceOnUse" color-interpolation-filters="sRGB">
<feFlood flood-opacity="0" result="BackgroundImageFix"/>
<feBlend mode="normal" in="SourceGraphic" in2="BackgroundImageFix" result="shape"/>
<feColorMatrix in="SourceAlpha" type="matrix" values="0 0 0 0 0 0 0 0 0 0 0 0 0 0 0 0 0 0 127 0" result="hardAlpha"/>
<feOffset/>
<feGaussianBlur stdDeviation="0.869317"/>
<feComposite in2="hardAlpha" operator="arithmetic" k2="-1" k3="1"/>
<feColorMatrix type="matrix" values="0 0 0 0 0 0 0 0 0 0 0 0 0 0 0 0 0 0 0.25 0"/>
<feBlend mode="normal" in2="shape" result="effect1_innerShadow_2657_26715"/>
</filter>
<filter id="filter10_i_2657_26715" x="1158.39" y="96.4678" width="9.5625" height="9.5625" filterUnits="userSpaceOnUse" color-interpolation-filters="sRGB">
<feFlood flood-opacity="0" result="BackgroundImageFix"/>
<feBlend mode="normal" in="SourceGraphic" in2="BackgroundImageFix" result="shape"/>
<feColorMatrix in="SourceAlpha" type="matrix" values="0 0 0 0 0 0 0 0 0 0 0 0 0 0 0 0 0 0 127 0" result="hardAlpha"/>
<feOffset/>
<feGaussianBlur stdDeviation="0.869317"/>
<feComposite in2="hardAlpha" operator="arithmetic" k2="-1" k3="1"/>
<feColorMatrix type="matrix" values="0 0 0 0 0 0 0 0 0 0 0 0 0 0 0 0 0 0 0.25 0"/>
<feBlend mode="normal" in2="shape" result="effect1_innerShadow_2657_26715"/>
</filter>
<filter id="filter11_i_2657_26715" x="1158.39" y="125.052" width="9.5625" height="9.5625" filterUnits="userSpaceOnUse" color-interpolation-filters="sRGB">
<feFlood flood-opacity="0" result="BackgroundImageFix"/>
<feBlend mode="normal" in="SourceGraphic" in2="BackgroundImageFix" result="shape"/>
<feColorMatrix in="SourceAlpha" type="matrix" values="0 0 0 0 0 0 0 0 0 0 0 0 0 0 0 0 0 0 127 0" result="hardAlpha"/>
<feOffset/>
<feGaussianBlur stdDeviation="0.869317"/>
<feComposite in2="hardAlpha" operator="arithmetic" k2="-1" k3="1"/>
<feColorMatrix type="matrix" values="0 0 0 0 0 0 0 0 0 0 0 0 0 0 0 0 0 0 0.25 0"/>
<feBlend mode="normal" in2="shape" result="effect1_innerShadow_2657_26715"/>
</filter>
<filter id="filter12_i_2657_26715" x="1186.69" y="125.052" width="9.5625" height="9.5625" filterUnits="userSpaceOnUse" color-interpolation-filters="sRGB">
<feFlood flood-opacity="0" result="BackgroundImageFix"/>
<feBlend mode="normal" in="SourceGraphic" in2="BackgroundImageFix" result="shape"/>
<feColorMatrix in="SourceAlpha" type="matrix" values="0 0 0 0 0 0 0 0 0 0 0 0 0 0 0 0 0 0 127 0" result="hardAlpha"/>
<feOffset/>
<feGaussianBlur stdDeviation="0.869317"/>
<feComposite in2="hardAlpha" operator="arithmetic" k2="-1" k3="1"/>
<feColorMatrix type="matrix" values="0 0 0 0 0 0 0 0 0 0 0 0 0 0 0 0 0 0 0.25 0"/>
<feBlend mode="normal" in2="shape" result="effect1_innerShadow_2657_26715"/>
</filter>
<linearGradient id="paint0_linear_2657_26715" x1="-1.62221e-06" y1="323.633" x2="112.591" y2="323.633" gradientUnits="userSpaceOnUse">
<stop offset="0.173681" stop-color="#F9F9FB"/>
<stop offset="1" stop-color="#F9F9FB" stop-opacity="0"/>
</linearGradient>
<linearGradient id="paint1_linear_2657_26715" x1="1288.64" y1="300.815" x2="1176.15" y2="300.815" gradientUnits="userSpaceOnUse">
<stop offset="0.173681" stop-color="#F9F9FB"/>
<stop offset="1" stop-color="#F9F9FB" stop-opacity="0"/>
</linearGradient>
<linearGradient id="paint2_linear_2657_26715" x1="633.517" y1="0.00073738" x2="633.517" y2="112.491" gradientUnits="userSpaceOnUse">
<stop offset="0.173681" stop-color="#F9F9FB"/>
<stop offset="1" stop-color="#F9F9FB" stop-opacity="0"/>
</linearGradient>
<linearGradient id="paint3_linear_2657_26715" x1="656.181" y1="528" x2="656.181" y2="393" gradientUnits="userSpaceOnUse">
<stop offset="0.173681" stop-color="#F9F9FB"/>
<stop offset="1" stop-color="#F9F9FB" stop-opacity="0"/>
</linearGradient>
</defs>
</svg>
