<svg width="290" height="58" viewBox="0 0 290 58" fill="none" xmlns="http://www.w3.org/2000/svg">
<g clip-path="url(#clip0_2655_26069)">
<path d="M114.167 44.7796C106.371 44.7796 102.021 40.5837 102.021 32.5157V15.8091C102.021 15.6764 102.074 15.5493 102.168 15.4555C102.262 15.3617 102.389 15.309 102.522 15.309H108.246C108.379 15.309 108.506 15.3617 108.6 15.4555C108.694 15.5493 108.746 15.6764 108.746 15.8091V32.0541C108.746 36.1666 110.487 38.6604 114.324 38.6604C118.161 38.6604 119.863 36.1666 119.863 32.0541V15.8091C119.863 15.6764 119.915 15.5493 120.009 15.4555C120.103 15.3617 120.23 15.309 120.363 15.309H126.088C126.22 15.309 126.348 15.3617 126.441 15.4555C126.535 15.5493 126.588 15.6764 126.588 15.8091V32.5157C126.588 40.5837 121.959 44.7796 114.167 44.7796Z" fill="white"/>
<path d="M150.094 44.2828L148.171 39.6317C148.135 39.538 148.072 39.4572 147.99 39.3999C147.907 39.3427 147.809 39.3118 147.709 39.3112H138.353C138.252 39.3118 138.154 39.3427 138.072 39.3999C137.99 39.4572 137.927 39.538 137.891 39.6317L135.968 44.2828C135.931 44.3763 135.867 44.4568 135.784 44.5138C135.701 44.5709 135.603 44.6021 135.503 44.6033H129.772C129.687 44.6037 129.604 44.5827 129.53 44.5424C129.456 44.5021 129.394 44.4437 129.348 44.3727C129.303 44.3017 129.276 44.2204 129.271 44.1363C129.265 44.0522 129.281 43.9681 129.316 43.8917L142.459 15.7354C142.515 15.6125 142.605 15.5083 142.719 15.435C142.832 15.3617 142.965 15.3225 143.1 15.3219C143.235 15.3225 143.367 15.3617 143.481 15.435C143.594 15.5083 143.685 15.6125 143.741 15.7354L156.883 43.8917C156.919 43.9678 156.934 44.0517 156.929 44.1355C156.924 44.2194 156.897 44.3005 156.852 44.3714C156.807 44.4423 156.745 44.5007 156.671 44.5413C156.598 44.5818 156.515 44.6031 156.431 44.6033H150.559C150.458 44.6029 150.36 44.5721 150.277 44.5149C150.194 44.4577 150.13 44.3768 150.094 44.2828ZM142.584 28.3198L140.446 33.4774C140.414 33.5533 140.402 33.636 140.41 33.7179C140.417 33.7998 140.446 33.8786 140.491 33.9471C140.537 34.0155 140.599 34.0717 140.671 34.1106C140.744 34.1494 140.825 34.1697 140.907 34.1697H145.158C145.24 34.1697 145.321 34.1494 145.394 34.1106C145.466 34.0717 145.528 34.0155 145.574 33.9471C145.619 33.8786 145.647 33.7998 145.655 33.7179C145.663 33.636 145.651 33.5533 145.619 33.4774L143.51 28.323C143.473 28.2308 143.409 28.1517 143.327 28.096C143.244 28.0402 143.147 28.0102 143.048 28.0098C142.949 28.0095 142.851 28.0388 142.769 28.094C142.686 28.1492 142.621 28.2279 142.584 28.3198Z" fill="white"/>
<path d="M162.076 44.2731V15.8155C162.076 15.7489 162.089 15.6828 162.114 15.6212C162.139 15.5595 162.176 15.5035 162.224 15.4564C162.271 15.4093 162.327 15.372 162.388 15.3467C162.45 15.3214 162.516 15.3086 162.583 15.309H168.404C168.472 15.3069 168.539 15.3184 168.602 15.3429C168.666 15.3674 168.723 15.4043 168.772 15.4516C168.821 15.4988 168.86 15.5554 168.886 15.6179C168.913 15.6804 168.926 15.7476 168.926 15.8155V38.0386C168.926 38.1729 168.98 38.3017 169.074 38.3967C169.169 38.4917 169.298 38.5451 169.433 38.5451H180.241C180.376 38.5451 180.504 38.5984 180.599 38.6934C180.694 38.7884 180.748 38.9172 180.748 39.0515V44.2731C180.748 44.3396 180.735 44.4055 180.709 44.4669C180.684 44.5284 180.646 44.5842 180.599 44.6312C180.552 44.6783 180.497 44.7156 180.435 44.741C180.374 44.7665 180.308 44.7796 180.241 44.7796H162.611C162.543 44.7835 162.474 44.7733 162.409 44.7496C162.344 44.726 162.285 44.6893 162.235 44.6418C162.184 44.5944 162.145 44.5372 162.117 44.4738C162.09 44.4104 162.076 44.3421 162.076 44.2731Z" fill="white"/>
<path d="M187.33 44.2667V15.8187C187.331 15.6832 187.385 15.5536 187.481 15.4581C187.578 15.3626 187.707 15.309 187.843 15.309H193.654C193.79 15.309 193.92 15.3626 194.016 15.4581C194.112 15.5536 194.166 15.6832 194.167 15.8187V44.2667C194.167 44.4027 194.113 44.5332 194.017 44.6294C193.921 44.7255 193.79 44.7796 193.654 44.7796H187.837C187.702 44.7779 187.573 44.7231 187.478 44.6271C187.383 44.5311 187.33 44.4016 187.33 44.2667Z" fill="white"/>
<path d="M207.512 22.0981V27.5665C207.51 27.6354 207.523 27.7038 207.548 27.7677C207.574 27.8316 207.612 27.8898 207.661 27.9388C207.709 27.9878 207.767 28.0266 207.83 28.053C207.894 28.0793 207.962 28.0926 208.031 28.0922H217.125C217.263 28.0922 217.395 28.1468 217.493 28.2441C217.591 28.3414 217.646 28.4735 217.647 28.6115V33.5638C217.647 33.7016 217.592 33.8336 217.495 33.931C217.398 34.0284 217.266 34.0831 217.128 34.0831H208.031C207.893 34.0831 207.761 34.1378 207.664 34.2352C207.566 34.3326 207.512 34.4647 207.512 34.6024V44.2603C207.511 44.3978 207.456 44.5294 207.359 44.6266C207.261 44.7238 207.13 44.7787 206.992 44.7796H201.194C201.057 44.7787 200.925 44.7236 200.829 44.6264C200.732 44.5291 200.678 44.3975 200.678 44.2603V15.8283C200.677 15.7603 200.69 15.6928 200.716 15.6298C200.742 15.5668 200.78 15.5096 200.828 15.4613C200.876 15.413 200.933 15.3747 200.996 15.3486C201.058 15.3225 201.126 15.309 201.194 15.309H218.824C218.892 15.309 218.959 15.3225 219.022 15.3486C219.085 15.3747 219.142 15.413 219.19 15.4613C219.238 15.5096 219.276 15.5668 219.301 15.6298C219.327 15.6928 219.34 15.7603 219.34 15.8283V21.0595C219.34 21.1276 219.327 21.195 219.301 21.258C219.276 21.321 219.238 21.3783 219.19 21.4265C219.142 21.4748 219.085 21.5131 219.022 21.5392C218.959 21.5654 218.892 21.5788 218.824 21.5788H208.031C207.893 21.5788 207.761 21.6335 207.664 21.7309C207.566 21.8283 207.512 21.9604 207.512 22.0981Z" fill="white"/>
<path d="M225.379 44.2731V15.8155C225.378 15.7489 225.391 15.6828 225.417 15.6212C225.442 15.5595 225.479 15.5035 225.526 15.4564C225.573 15.4093 225.629 15.372 225.691 15.3467C225.753 15.3214 225.819 15.3086 225.885 15.309H231.706C231.773 15.309 231.839 15.3221 231.9 15.3476C231.962 15.373 232.017 15.4103 232.065 15.4574C232.112 15.5044 232.149 15.5602 232.174 15.6217C232.2 15.6831 232.213 15.749 232.213 15.8155V44.2731C232.213 44.3396 232.2 44.4055 232.174 44.4669C232.149 44.5284 232.112 44.5842 232.065 44.6313C232.017 44.6783 231.962 44.7156 231.9 44.741C231.839 44.7665 231.773 44.7796 231.706 44.7796H225.885C225.819 44.7796 225.753 44.7665 225.692 44.741C225.63 44.7156 225.574 44.6783 225.527 44.6313C225.48 44.5842 225.443 44.5284 225.417 44.4669C225.392 44.4055 225.379 44.3396 225.379 44.2731Z" fill="white"/>
<path d="M238.402 44.2571V15.8283C238.402 15.6906 238.457 15.5585 238.554 15.4611C238.652 15.3637 238.784 15.309 238.922 15.309H256.551C256.62 15.3086 256.688 15.3217 256.751 15.3476C256.814 15.3735 256.872 15.4117 256.921 15.46C256.969 15.5082 257.008 15.5656 257.034 15.6288C257.06 15.6921 257.074 15.7598 257.074 15.8283V21.0595C257.074 21.1973 257.019 21.3293 256.922 21.4267C256.824 21.5241 256.692 21.5788 256.555 21.5788H245.756C245.686 21.5792 245.617 21.5936 245.553 21.621C245.489 21.6484 245.431 21.6884 245.382 21.7386C245.334 21.7888 245.296 21.8482 245.271 21.9132C245.246 21.9782 245.234 22.0476 245.236 22.1173V26.326C245.236 26.4638 245.291 26.5958 245.388 26.6932C245.486 26.7906 245.618 26.8453 245.756 26.8453H255.49C255.629 26.8453 255.762 26.9004 255.86 26.9983C255.958 27.0963 256.013 27.2292 256.013 27.3678V32.2785C256.012 32.4165 255.957 32.5486 255.859 32.6459C255.761 32.7432 255.628 32.7978 255.49 32.7978H245.756C245.618 32.7978 245.486 32.8525 245.388 32.9499C245.291 33.0472 245.236 33.1793 245.236 33.317V38.0258C245.236 38.094 245.25 38.1615 245.276 38.2245C245.302 38.2875 245.34 38.3448 245.388 38.393C245.437 38.4412 245.494 38.4794 245.557 38.5055C245.62 38.5316 245.687 38.5451 245.756 38.5451H256.539C256.677 38.5459 256.809 38.6013 256.906 38.6992C257.003 38.7971 257.058 38.9295 257.058 39.0675V44.2571C257.058 44.3951 257.003 44.5275 256.906 44.6254C256.809 44.7233 256.677 44.7787 256.539 44.7796H238.909C238.773 44.7754 238.644 44.7185 238.55 44.621C238.455 44.5235 238.402 44.3929 238.402 44.2571Z" fill="white"/>
<path d="M272.191 44.7187C268.665 44.7187 267.104 44.7187 263.568 44.7187C263.441 44.712 263.321 44.6557 263.234 44.5617C263.147 44.4676 263.1 44.3434 263.104 44.2154V15.9277C263.102 15.8009 263.148 15.678 263.233 15.584C263.318 15.4899 263.436 15.4318 263.562 15.4212C266.735 15.309 269.034 15.309 271.861 15.309C284.195 15.309 290 21.3993 290 29.7911C290 38.5515 284.561 44.6706 272.191 44.7187ZM272.832 21.1493C272.037 21.1402 271.242 21.1777 270.45 21.2615C270.326 21.2735 270.21 21.3317 270.125 21.4248C270.041 21.518 269.995 21.6392 269.995 21.7647V38.3752C269.995 38.5017 270.042 38.6238 270.128 38.7171C270.213 38.8103 270.331 38.8679 270.457 38.8784C271.395 38.9706 272.338 39.0102 273.281 38.997C279.769 38.997 282.65 35.3461 282.65 29.7911C282.657 24.3932 279.249 21.1557 272.839 21.1557L272.832 21.1493Z" fill="white"/>
<path d="M99.5638 43.8917L93.919 39.106C95.8211 36.474 96.8217 33.2977 96.7719 30.0507C96.7719 21.6397 91.0887 15.3058 82.2898 15.3058C73.491 15.3058 67.5449 21.6494 67.5449 30.0507C67.5449 38.4521 73.1896 44.7668 82.027 44.7668C84.8347 44.8068 87.5997 44.0762 90.0213 42.6544L92.3708 44.645C92.46 44.7221 92.5735 44.7652 92.6914 44.7668H99.2304C99.3314 44.7656 99.4298 44.7341 99.5126 44.6763C99.5955 44.6185 99.659 44.5371 99.695 44.4427C99.7309 44.3483 99.7377 44.2453 99.7143 44.147C99.6909 44.0487 99.6384 43.9598 99.5638 43.8917ZM82.1456 38.9009C77.6291 38.9009 74.5936 35.1634 74.5936 30.0636C74.5936 24.9638 77.6291 21.2262 82.1456 21.2262C86.662 21.2262 89.6975 24.9253 89.6975 30.0636C89.7175 31.6583 89.3778 33.2371 88.7038 34.6826L87.7422 33.8588C87.6521 33.7837 87.5389 33.7419 87.4217 33.7402H80.8826C80.7798 33.741 80.6797 33.7733 80.5958 33.8327C80.5119 33.8921 80.4482 33.9758 80.4132 34.0725C80.3783 34.1692 80.3739 34.2743 80.4005 34.3737C80.4271 34.473 80.4835 34.5618 80.5621 34.6281L84.9439 38.3528C84.0565 38.7186 83.1054 38.9049 82.1456 38.9009Z" fill="white"/>
<path d="M45.7677 21.4057L24.3619 0L2.95619 21.4057C1.06456 23.2985 0.00195313 25.865 0.00195312 28.541C0.00195313 31.217 1.06456 33.7834 2.95619 35.6762L8.90223 41.6223L18.4159 51.1359L21.9835 54.7036L24.3619 57.082L26.7403 54.7036L30.308 51.1359L39.8216 41.6223L45.7677 35.6762C47.6593 33.7834 48.7219 31.217 48.7219 28.541C48.7219 25.865 47.6593 23.2985 45.7677 21.4057ZM35.1449 42.7313C35.1323 40.529 34.2525 38.4204 32.696 36.8622L24.6825 28.8487C24.6437 28.809 24.5973 28.7774 24.5461 28.7558C24.4949 28.7343 24.4399 28.7232 24.3844 28.7232C24.3288 28.7232 24.2738 28.7343 24.2226 28.7558C24.1714 28.7774 24.1251 28.809 24.0863 28.8487L16.0279 36.8622C14.4687 38.418 13.5853 40.5256 13.5693 42.7281L10.6844 39.8433C10.1359 39.2968 9.70063 38.6474 9.40364 37.9323C9.10665 37.2172 8.95377 36.4505 8.95377 35.6762C8.95377 34.9019 9.10665 34.1352 9.40364 33.4202C9.70063 32.7051 10.1359 32.0557 10.6844 31.5092L24.3619 17.8381L38.0362 31.5156C38.5848 32.0621 39.02 32.7115 39.317 33.4266C39.614 34.1417 39.7669 34.9083 39.7669 35.6826C39.7669 36.4569 39.614 37.2236 39.317 37.9387C39.02 38.6538 38.5848 39.3032 38.0362 39.8497L35.1449 42.7313ZM43.9823 33.8908L42.2802 35.5961C42.2642 33.3935 41.3808 31.286 39.8216 29.7302L24.66 14.5686C24.6212 14.5289 24.5749 14.4973 24.5237 14.4757C24.4725 14.4542 24.4175 14.4431 24.3619 14.4431C24.3064 14.4431 24.2514 14.4542 24.2002 14.4757C24.149 14.4973 24.1026 14.5289 24.0638 14.5686L8.90223 29.7302C7.34302 31.286 6.4597 33.3935 6.44368 35.5961L4.74161 33.8908C4.03846 33.1883 3.48065 32.3541 3.10007 31.4358C2.71949 30.5176 2.5236 29.5334 2.5236 28.5394C2.5236 27.5454 2.71949 26.5612 3.10007 25.6429C3.48065 24.7247 4.03846 23.8905 4.74161 23.1879L24.3619 3.56762L43.9823 23.1879C44.6854 23.8905 45.2432 24.7247 45.6238 25.6429C46.0044 26.5612 46.2003 27.5454 46.2003 28.5394C46.2003 29.5334 46.0044 30.5176 45.6238 31.4358C45.2432 32.3541 44.6854 33.1883 43.9823 33.8908Z" fill="#67B8C7"/>
</g>
<defs>
<clipPath id="clip0_2655_26069">
<rect width="290" height="57.082" fill="white"/>
</clipPath>
</defs>
</svg>
