<svg width="96" height="30" viewBox="0 0 96 30" fill="none" xmlns="http://www.w3.org/2000/svg">
<g clip-path="url(#clip0_2655_26043)">
<mask id="mask0_2655_26043" style="mask-type:luminance" maskUnits="userSpaceOnUse" x="0" y="0" width="96" height="30">
<path d="M96 0H0V29.888H96V0Z" fill="white"/>
</mask>
<g mask="url(#mask0_2655_26043)">
<path d="M30.2002 6.99795C28.7038 6.97932 27.2192 7.26412 25.8359 7.83516C24.4526 8.4062 23.1994 9.25164 22.152 10.3204C21.1045 11.3892 20.2844 12.6592 19.7414 14.0537C19.1983 15.4482 18.9435 16.9382 18.9922 18.4339C18.941 21.0891 19.8333 23.6763 21.5106 25.7353C23.1878 27.7942 25.541 29.1914 28.1517 29.6783C30.7623 30.1651 33.461 29.71 35.7676 28.3939C38.0741 27.0778 39.839 24.9861 40.7482 22.4909H36.5392C36.3989 22.4917 36.2608 22.5267 36.1371 22.5929C36.0134 22.6592 35.9077 22.7546 35.8292 22.8709C35.1986 23.7708 34.3537 24.4993 33.3709 24.9908C32.3882 25.4822 31.2985 25.7212 30.2002 25.6859C28.6697 25.7596 27.1638 25.2799 25.9578 24.3347C24.7518 23.3894 23.9263 22.0417 23.6322 20.5379C23.6119 20.4682 23.6085 20.3946 23.6224 20.3233C23.6363 20.252 23.667 20.185 23.712 20.1279C23.757 20.0709 23.815 20.0255 23.8811 19.9954C23.9473 19.9653 24.0196 19.9514 24.0922 19.9549H41.2042C41.2635 19.4667 41.2969 18.9757 41.3042 18.4839C41.3042 12.1449 36.8672 6.99695 30.1982 6.99695M23.6322 16.3039C23.9154 14.7849 24.7336 13.4176 25.9384 12.4501C27.1432 11.4825 28.6548 10.9787 30.1992 11.0299C31.7496 10.9772 33.2679 11.4794 34.4811 12.4462C35.6942 13.413 36.5226 14.7809 36.8172 16.3039H23.6322Z" fill="white"/>
<path d="M63.8465 16.735C63.8465 11.41 58.8765 7.07397 53.5775 6.97297C48.2785 6.87197 43.0035 11.41 43.0035 16.887V18.763H42.9785V29.819H47.3145V21.046V16.862C47.3145 13.692 50.5605 11.131 53.7295 11.309C56.8985 11.487 59.5365 13.845 59.5365 16.735V19.042V28.878C59.5365 29.1336 59.6381 29.3788 59.8189 29.5596C59.9996 29.7404 60.2449 29.842 60.5005 29.842H63.8725V19.042L63.8465 16.735Z" fill="white"/>
<path d="M9.585 16.0249C6.948 15.5939 4.717 15.2139 4.717 13.2859C4.717 11.3579 6.263 10.6459 8.723 10.6459C11.183 10.6459 12.523 11.4829 12.932 13.0799C12.9884 13.2989 13.1164 13.4927 13.2956 13.6306C13.4748 13.7685 13.6949 13.8425 13.921 13.8409H17.268C17.192 9.60594 13.896 6.84094 8.85 6.84094C3.804 6.84094 0.38 9.53394 0.38 13.4389C0.38 18.4849 4.665 19.3219 8.291 19.9299C10.953 20.3859 13.291 20.8429 13.291 22.9219C13.291 25.0009 11.44 25.7619 9.031 25.7619C6.622 25.7619 5 24.8459 4.488 23.0739C4.42706 22.8437 4.29238 22.6398 4.10457 22.4933C3.91676 22.3468 3.68615 22.2659 3.448 22.2629H0C0.127 26.7759 3.6 29.7179 8.9 29.7179C14.2 29.7179 17.75 26.9789 17.75 22.7459C17.75 17.3699 13.287 16.6599 9.585 16.0519" fill="white"/>
<path d="M88.8744 0H85.3484C85.1712 0.00672796 85.0036 0.0818568 84.8807 0.209597C84.7578 0.337338 84.6892 0.507743 84.6894 0.685V8.824C84.6931 8.87545 84.6811 8.92681 84.655 8.97127C84.6288 9.01573 84.5897 9.05117 84.5429 9.07289C84.4961 9.0946 84.4439 9.10155 84.393 9.09282C84.3422 9.08408 84.2952 9.06008 84.2584 9.024C82.917 8.01201 81.3724 7.30245 79.7308 6.94409C78.0892 6.58573 76.3894 6.58706 74.7483 6.948C72.6296 7.3954 70.682 8.43646 69.1329 9.94958C67.5839 11.4627 66.4974 13.3854 66.0004 15.493C65.5965 17.0912 65.5376 18.757 65.8274 20.3798C66.1172 22.0025 66.7492 23.5449 67.6813 24.9045C68.6134 26.2641 69.8242 27.4097 71.2333 28.265C72.6424 29.1204 74.2175 29.666 75.8538 29.8655C77.4901 30.0651 79.1501 29.914 80.7235 29.4223C82.2969 28.9306 83.7475 28.1095 84.979 27.0138C86.2105 25.918 87.1946 24.5727 87.8659 23.0671C88.5372 21.5616 88.8803 19.9304 88.8723 18.282L88.8744 0ZM77.2603 25.686C75.7998 25.6853 74.372 25.254 73.1552 24.4462C71.9384 23.6384 70.9867 22.4899 70.4191 21.1442C69.8515 19.7985 69.6931 18.3153 69.9638 16.8801C70.2345 15.4449 70.9223 14.1213 71.9411 13.0748C72.9599 12.0283 74.2645 11.3053 75.6919 10.9963C77.1194 10.6872 78.6063 10.8057 79.9667 11.337C81.3271 11.8683 82.5008 12.7889 83.3409 13.9835C84.1811 15.1782 84.6504 16.594 84.6903 18.054V18.282C84.6827 20.2474 83.8965 22.1297 82.5039 23.5167C81.1113 24.9037 79.2258 25.6823 77.2603 25.682" fill="white"/>
<path d="M89.1789 28.222C88.6209 28.729 89.0519 29.49 89.8889 29.186L95.5689 27.586C95.6644 27.5573 95.7513 27.5056 95.8222 27.4355C95.893 27.3653 95.9455 27.2789 95.9751 27.1837C96.0047 27.0885 96.0105 26.9875 95.992 26.8896C95.9735 26.7917 95.9312 26.6998 95.8689 26.622L93.3079 20.942C93.2576 20.8309 93.169 20.7417 93.0583 20.6907C92.9476 20.6397 92.8222 20.6303 92.7051 20.6642C92.588 20.698 92.4871 20.773 92.4207 20.8752C92.3544 20.9775 92.3271 21.1002 92.3439 21.221C92.1831 23.8645 91.0547 26.3563 89.1739 28.221" fill="#FDEEB0"/>
</g>
</g>
<defs>
<clipPath id="clip0_2655_26043">
<rect width="96" height="29.888" fill="white"/>
</clipPath>
</defs>
</svg>
