<svg width="96" height="30" viewBox="0 0 96 30" fill="none" xmlns="http://www.w3.org/2000/svg">
<g clip-path="url(#clip0_2659_26753)">
<mask id="mask0_2659_26753" style="mask-type:luminance" maskUnits="userSpaceOnUse" x="0" y="0" width="96" height="30">
<path d="M96 0H0V29.888H96V0Z" fill="white"/>
</mask>
<g mask="url(#mask0_2659_26753)">
<path d="M89.1789 28.222C88.6209 28.729 89.0519 29.49 89.8889 29.186L95.5689 27.586C95.6644 27.5573 95.7513 27.5056 95.8222 27.4355C95.893 27.3653 95.9455 27.2789 95.9751 27.1837C96.0047 27.0885 96.0105 26.9875 95.992 26.8896C95.9735 26.7917 95.9312 26.6998 95.8689 26.622L93.3079 20.942C93.2576 20.8309 93.169 20.7417 93.0583 20.6907C92.9476 20.6397 92.8222 20.6303 92.7051 20.6642C92.588 20.698 92.4871 20.773 92.4207 20.8752C92.3544 20.9775 92.3271 21.1002 92.3439 21.221C92.1831 23.8645 91.0547 26.3563 89.1739 28.221" fill="#FDEEB0"/>
</g>
</g>
<defs>
<clipPath id="clip0_2659_26753">
<rect width="96" height="29.888" fill="white"/>
</clipPath>
</defs>
</svg>
