<svg width="8" height="8" viewBox="0 0 8 8" fill="none" xmlns="http://www.w3.org/2000/svg">
<path d="M7.29112 4.06569C7.57515 3.9015 7.57498 3.49142 7.29082 3.32746L5.96504 2.56248C5.62011 2.36278 5.33353 2.0762 5.13383 1.73128L4.36885 0.405497C4.20489 0.121332 3.79482 0.121164 3.63062 0.405195L2.86402 1.73128C2.66577 2.07613 2.3792 2.36317 2.03496 2.56248L0.709175 3.32746C0.425011 3.49143 0.424844 3.9015 0.708875 4.06569L2.03496 4.83229C2.37974 5.0305 2.66581 5.31658 2.86402 5.66136L3.63062 6.98744C3.79482 7.27147 4.20489 7.2713 4.36885 6.98714L5.13383 5.66136C5.33314 5.31711 5.62019 5.03055 5.96504 4.83229L7.29112 4.06569Z" fill="#0D162F" fill-opacity="0.5"/>
</svg>
