<svg width="99" height="67" viewBox="0 0 99 67" fill="none" xmlns="http://www.w3.org/2000/svg">
<g clip-path="url(#clip0_2435_53001)">
<rect opacity="0.5" x="22.5233" y="8.71987" width="22.5361" height="22.5153" rx="4.17336" stroke="white" stroke-width="1.47295"/>
<rect opacity="0.5" x="22.5233" y="37.6232" width="22.5361" height="22.5153" rx="4.17336" stroke="white" stroke-width="1.47295"/>
<rect opacity="0.5" x="51.4418" y="8.71987" width="22.5361" height="22.5153" rx="4.17336" stroke="white" stroke-width="1.47295"/>
<rect opacity="0.5" x="80.5705" y="8.71987" width="22.5361" height="22.5153" rx="4.17336" stroke="white" stroke-width="1.47295"/>
<rect opacity="0.5" x="51.4418" y="37.6232" width="22.5361" height="22.5153" rx="4.17336" stroke="white" stroke-width="1.47295"/>
<rect opacity="0.5" x="80.5705" y="37.6232" width="22.5361" height="22.5153" rx="4.17336" stroke="white" stroke-width="1.47295"/>
<g opacity="0.5">
<path d="M73.899 21.5212L55.2205 12.5942L51.1628 21.0845L69.8413 30.0114L73.899 21.5212Z" fill="#8F8FB0"/>
<path d="M51.9719 19.3868L50.2769 18.5767L49.4667 20.2717L51.1618 21.0818L51.9719 19.3868Z" fill="#2A2B42"/>
<path d="M52.7834 17.689L51.0884 16.8789L50.2783 18.574L51.9733 19.3841L52.7834 17.689Z" fill="#2A2B42"/>
<path d="M54.0019 15.1402L52.3069 14.3301L50.0704 19.0097L51.7655 19.8198L54.0019 15.1402Z" fill="#2A2B42"/>
<path d="M54.407 14.2896L52.7119 13.4795L51.9018 15.1746L53.5969 15.9847L54.407 14.2896Z" fill="#2A2B42"/>
<path d="M55.2175 12.5953L53.5225 11.7852L52.7124 13.4802L54.4074 14.2903L55.2175 12.5953Z" fill="#2A2B42"/>
<path d="M75.1348 23.2925L73.4397 22.4824L69.8433 30.0075L71.5384 30.8176L75.1348 23.2925Z" fill="#2A2B42"/>
<path d="M73.1599 27.4258L71.4648 26.6157L70.6547 28.3108L72.3498 29.1209L73.1599 27.4258Z" fill="#2A2B42"/>
<path d="M73.9714 25.7242L72.2764 24.9141L71.4663 26.6091L73.1613 27.4192L73.9714 25.7242Z" fill="#2A2B42"/>
<path d="M74.783 24.0298L73.0879 23.2197L72.2778 24.9148L73.9728 25.7249L74.783 24.0298Z" fill="#2A2B42"/>
<path d="M75.5945 22.335L73.8994 21.5249L73.0893 23.22L74.7844 24.0301L75.5945 22.335Z" fill="#2A2B42"/>
<path d="M52.8584 21.8941L51.1633 21.084L50.3532 22.779L52.0483 23.5892L52.8584 21.8941Z" fill="#2A2B42"/>
<path d="M57.7275 11.7066L56.0325 10.8965L55.2224 12.5915L56.9174 13.4017L57.7275 11.7066Z" fill="#2A2B42"/>
<path d="M68.9729 29.5967L52.4299 21.6904L51.6198 23.3855L68.1627 31.2918L68.9729 29.5967Z" fill="#2A2B42"/>
<path d="M59.426 12.5157L57.731 11.7056L56.9208 13.4006L58.6159 14.2107L59.426 12.5157Z" fill="#2A2B42"/>
<path d="M56.2544 23.5167L54.5593 22.7065L53.7492 24.4016L55.4443 25.2117L56.2544 23.5167Z" fill="#2A2B42"/>
<path d="M61.124 13.3321L59.429 12.522L58.6188 14.217L60.3139 15.0271L61.124 13.3321Z" fill="#2A2B42"/>
<path d="M57.9526 24.3326L56.2576 23.5225L55.4475 25.2175L57.1425 26.0276L57.9526 24.3326Z" fill="#2A2B42"/>
<path d="M62.8218 14.1417L61.1267 13.3315L60.3166 15.0266L62.0117 15.8367L62.8218 14.1417Z" fill="#2A2B42"/>
<path d="M59.6506 25.1456L57.9556 24.3354L57.1455 26.0305L58.8405 26.8406L59.6506 25.1456Z" fill="#2A2B42"/>
<path d="M61.3491 25.9517L59.6541 25.1416L58.8439 26.8367L60.539 27.6468L61.3491 25.9517Z" fill="#2A2B42"/>
<path d="M63.0466 26.7608L61.3516 25.9507L60.5415 27.6457L62.2365 28.4559L63.0466 26.7608Z" fill="#2A2B42"/>
<path d="M64.5201 14.95L57.2563 11.4785L56.4462 13.1736L63.71 16.6451L64.5201 14.95Z" fill="#2A2B42"/>
<path d="M67.3379 13.4185L65.6428 12.6084L64.5237 14.9501L66.2187 15.7602L67.3379 13.4185Z" fill="#2A2B42"/>
<path d="M67.8408 12.3677L66.1458 11.5576L65.3356 13.2527L67.0307 14.0628L67.8408 12.3677Z" fill="#2A2B42"/>
<path d="M69.5388 13.1846L67.1367 12.0366L66.3266 13.7317L68.7287 14.8797L69.5388 13.1846Z" fill="#2A2B42"/>
<path d="M67.9163 16.5767L66.2212 15.7666L65.4111 17.4617L67.1061 18.2718L67.9163 16.5767Z" fill="#2A2B42"/>
<path d="M64.7451 27.5772L63.05 26.7671L62.2399 28.4621L63.935 29.2723L64.7451 27.5772Z" fill="#2A2B42"/>
<path d="M69.6142 17.3892L67.9192 16.5791L67.1091 18.2742L68.8041 19.0843L69.6142 17.3892Z" fill="#2A2B42"/>
<path d="M66.4429 28.3863L64.7478 27.5762L63.9377 29.2712L65.6328 30.0813L66.4429 28.3863Z" fill="#2A2B42"/>
<path d="M71.3125 18.1988L69.6174 17.3887L68.8073 19.0837L70.5024 19.8938L71.3125 18.1988Z" fill="#2A2B42"/>
<path d="M68.1409 29.1993L66.4458 28.3892L65.6357 30.0842L67.3308 30.8943L68.1409 29.1993Z" fill="#2A2B42"/>
<path d="M56.1794 19.3077L54.4844 18.4976L53.6743 20.1926L55.3693 21.0027L56.1794 19.3077Z" fill="#CCCEF7"/>
<path d="M73.0588 23.2264L57.7954 15.9316L55.1903 21.3825L70.4537 28.6772L73.0588 23.2264Z" fill="#66668B"/>
<path d="M59.5757 20.9297L57.8806 20.1196L57.0705 21.8147L58.7656 22.6248L59.5757 20.9297Z" fill="#CCCEF7"/>
<path d="M62.9722 22.5557L61.2771 21.7456L60.467 23.4407L62.162 24.2508L62.9722 22.5557Z" fill="#CCCEF7"/>
<path d="M66.3677 24.1812L64.6726 23.3711L63.8625 25.0662L65.5576 25.8763L66.3677 24.1812Z" fill="#CCCEF7"/>
<path d="M69.7639 25.8033L68.0688 24.9932L67.2587 26.6882L68.9538 27.4983L69.7639 25.8033Z" fill="#CCCEF7"/>
<path d="M57.803 15.9151L56.1079 15.105L55.2978 16.8L56.9929 17.6102L57.803 15.9151Z" fill="#CCCEF7"/>
<path d="M61.1992 17.5411L59.5042 16.731L58.694 18.426L60.3891 19.2361L61.1992 17.5411Z" fill="#CCCEF7"/>
<path d="M64.5942 19.1597L62.8992 18.3496L62.0891 20.0447L63.7841 20.8548L64.5942 19.1597Z" fill="#CCCEF7"/>
<path d="M67.9907 20.7852L66.2957 19.9751L65.4855 21.6702L67.1806 22.4803L67.9907 20.7852Z" fill="#CCCEF7"/>
<path d="M71.387 22.4073L69.6919 21.5972L68.8818 23.2922L70.5768 24.1023L71.387 22.4073Z" fill="#CCCEF7"/>
<path d="M70.6312 28.3074L53.6729 20.2026L52.8627 21.8977L69.8211 30.0025L70.6312 28.3074Z" fill="#66668B"/>
<path d="M58.7642 22.628L57.0691 21.8179L56.259 23.5129L57.954 24.323L58.7642 22.628Z" fill="#66668B"/>
<path d="M62.1606 24.2569L60.4656 23.4468L59.6555 25.1418L61.3505 25.9519L62.1606 24.2569Z" fill="#66668B"/>
<path d="M65.5561 25.8755L63.8611 25.0654L63.051 26.7605L64.746 27.5706L65.5561 25.8755Z" fill="#66668B"/>
<path d="M68.9524 27.5049L67.2573 26.6948L66.4472 28.3899L68.1423 29.2L68.9524 27.5049Z" fill="#66668B"/>
<path d="M72.2758 24.9183L55.2959 16.8032L54.4858 18.4983L71.4657 26.6134L72.2758 24.9183Z" fill="#66668B"/>
<path d="M66.2178 15.7671L64.5227 14.957L63.7126 16.6521L65.4077 17.4622L66.2178 15.7671Z" fill="#66668B"/>
<path d="M73.0105 19.0118L71.3154 18.2017L70.5053 19.8967L72.2004 20.7068L73.0105 19.0118Z" fill="#2A2B42"/>
<path d="M69.8393 30.0123L68.1443 29.2021L67.3342 30.8972L69.0292 31.7073L69.8393 30.0123Z" fill="#2A2B42"/>
<path d="M74.7077 19.8234L67.3933 16.3276L66.5832 18.0227L73.8976 21.5184L74.7077 19.8234Z" fill="#2A2B42"/>
</g>
<g opacity="0.5">
<path d="M24.6621 45.6358L22.9622 44.8013L22.1276 46.5012L23.8276 47.3357L24.6621 45.6358Z" fill="#2A2B42"/>
<path d="M25.4981 43.9307L23.7981 43.0962L22.9636 44.7962L24.6636 45.6307L25.4981 43.9307Z" fill="#2A2B42"/>
<path d="M26.3342 42.2261L24.6343 41.3916L23.7998 43.0916L25.4997 43.9261L26.3342 42.2261Z" fill="#2A2B42"/>
<path d="M28.8728 41.3614L27.1729 40.5269L26.3383 42.2268L28.0383 43.0613L28.8728 41.3614Z" fill="#2A2B42"/>
<path d="M24.6934 49.8755L22.9934 49.041L22.1589 50.741L23.8589 51.5755L24.6934 49.8755Z" fill="#2A2B42"/>
<path d="M35.2964 42.4041L29.7117 39.6626L28.8772 41.3626L34.4619 44.1041L35.2964 42.4041Z" fill="#2A2B42"/>
<path d="M33.1143 41.3306L31.4143 40.4961L30.5798 42.1961L32.2798 43.0306L33.1143 41.3306Z" fill="#2A2B42"/>
<path d="M34.8174 42.1641L33.1174 41.3296L32.2829 43.0296L33.9829 43.8641L34.8174 42.1641Z" fill="#2A2B42"/>
<path d="M25.5601 52.4136L23.8601 51.5791L23.0256 53.2791L24.7256 54.1136L25.5601 52.4136Z" fill="#2A2B42"/>
<path d="M27.2632 53.2505L25.5632 52.416L24.7287 54.116L26.4287 54.9505L27.2632 53.2505Z" fill="#2A2B42"/>
<path d="M28.9658 54.0874L27.2659 53.2529L26.4314 54.9529L28.1313 55.7874L28.9658 54.0874Z" fill="#2A2B42"/>
<path d="M25.7722 43.3731L24.0723 42.5386L21.2918 48.2026L22.9918 49.0371L25.7722 43.3731Z" fill="#2A2B42"/>
<path d="M28.0684 47.3028L26.3684 46.4683L25.5339 48.1682L27.2339 49.0027L28.0684 47.3028Z" fill="#2A2B42"/>
<path d="M28.9036 45.6045L27.2036 44.77L26.3691 46.47L28.0691 47.3045L28.9036 45.6045Z" fill="#2A2B42"/>
<path d="M33.7411 45.864L28.04 43.0654L27.2055 44.7654L32.9065 47.564L33.7411 45.864Z" fill="#2A2B42"/>
<path d="M29.1643 45.0708L27.4644 44.2363L24.6977 49.8723L26.3977 50.7068L29.1643 45.0708Z" fill="#2A2B42"/>
<path d="M33.1768 49.8135L31.4768 48.979L30.6423 50.679L32.3423 51.5135L33.1768 49.8135Z" fill="#2A2B42"/>
<path d="M34.0125 48.1158L32.3125 47.2812L31.478 48.9812L33.178 49.8157L34.0125 48.1158Z" fill="#2A2B42"/>
<path d="M34.8484 46.4073L33.1484 45.5728L30.3978 51.1761L32.0977 52.0106L34.8484 46.4073Z" fill="#2A2B42"/>
<path d="M32.3406 51.5152L26.8508 48.8203L26.0163 50.5203L31.5061 53.2152L32.3406 51.5152Z" fill="#2A2B42"/>
<path d="M30.6377 50.6778L28.9377 49.8433L28.1032 51.5432L29.8032 52.3777L30.6377 50.6778Z" fill="#2A2B42"/>
<path d="M28.9348 49.8477L27.2349 49.0132L26.4004 50.7132L28.1003 51.5477L28.9348 49.8477Z" fill="#2A2B42"/>
<path d="M33.1453 45.5738L31.4453 44.7393L30.6108 46.4392L32.3108 47.2737L33.1453 45.5738Z" fill="#2A2B42"/>
<path d="M31.4431 44.7369L29.7432 43.9023L28.9087 45.6023L30.6086 46.4368L31.4431 44.7369Z" fill="#2A2B42"/>
<path d="M32.3041 47.2713L28.9067 45.6035L27.239 49.0009L30.6363 50.6686L32.3041 47.2713Z" fill="#CACAED"/>
<path d="M37.7256 49.1592L36.0256 48.3247L33.2116 54.0571L34.9116 54.8916L37.7256 49.1592Z" fill="#2A2B42"/>
<path d="M36.5823 51.4873L34.8823 50.6528L34.0478 52.3528L35.7478 53.1873L36.5823 51.4873Z" fill="#2A2B42"/>
<path d="M37.4182 49.7823L35.7183 48.9478L34.8838 50.6477L36.5837 51.4822L37.4182 49.7823Z" fill="#2A2B42"/>
<path d="M38.2852 52.3189L35.6631 51.0317L34.8286 52.7317L37.4507 54.0189L38.2852 52.3189Z" fill="#2A2B42"/>
<path d="M39.1209 50.6199L36.7183 49.4404L35.5298 51.8614L37.9325 53.0408L39.1209 50.6199Z" fill="#2A2B42"/>
<path d="M45.499 54.8418L43.7991 54.0073L42.5622 56.527L44.2621 57.3616L45.499 54.8418Z" fill="#2A2B42"/>
<path d="M45.9326 53.96L44.2327 53.1255L43.3982 54.8255L45.0981 55.66L45.9326 53.96Z" fill="#2A2B42"/>
<path d="M38.2544 48.0811L36.5544 47.2466L35.7199 48.9466L37.4199 49.7811L38.2544 48.0811Z" fill="#2A2B42"/>
<path d="M41.4024 55.9637L37.4519 54.0244L36.6174 55.7244L40.5679 57.6637L41.4024 55.9637Z" fill="#2A2B42"/>
<path d="M43.9519 50.8731L39.9602 48.9136L39.1257 50.6135L43.1174 52.5731L43.9519 50.8731Z" fill="#2A2B42"/>
<path d="M40.855 55.6997L39.155 54.8652L38.3205 56.5652L40.0205 57.3997L40.855 55.6997Z" fill="#2A2B42"/>
<path d="M43.3628 50.585L41.6628 49.7505L40.8283 51.4505L42.5283 52.285L43.3628 50.585Z" fill="#2A2B42"/>
<path d="M42.5581 56.5332L40.8582 55.6987L40.0236 57.3987L41.7236 58.2332L42.5581 56.5332Z" fill="#2A2B42"/>
<path d="M45.0659 51.4253L43.366 50.5908L42.5315 52.2908L44.2314 53.1253L45.0659 51.4253Z" fill="#2A2B42"/>
<path d="M30.6687 54.9238L24.8589 52.0718L24.0244 53.7717L29.8342 56.6238L30.6687 54.9238Z" fill="#2A2B42"/>
<path d="M36.5205 43.0044L34.8206 42.1699L33.986 43.8699L35.686 44.7044L36.5205 43.0044Z" fill="#2A2B42"/>
<path d="M33.2078 54.0567L31.5078 53.2222L30.6733 54.9221L32.3733 55.7566L33.2078 54.0567Z" fill="#2A2B42"/>
<path d="M37.3872 45.5425L35.6873 44.708L34.8527 46.408L36.5527 47.2425L37.3872 45.5425Z" fill="#2A2B42"/>
<path d="M28.0399 43.0645L26.3369 42.2285L22.993 49.0404L24.696 49.8764L28.0399 43.0645Z" fill="#8F8FB0"/>
<path d="M31.5082 53.2219L24.6963 49.8779L23.8603 51.5809L30.6722 54.9248L31.5082 53.2219Z" fill="#8F8FB0"/>
<path d="M35.6876 44.7077L28.8757 41.3638L28.0398 43.0667L34.8516 46.4107L35.6876 44.7077Z" fill="#8F8FB0"/>
<path d="M36.5545 47.2456L34.8516 46.4097L31.5076 53.2215L33.2106 54.0575L36.5545 47.2456Z" fill="#8F8FB0"/>
<path d="M32.3098 47.2749L30.6099 46.4404L29.7754 48.1404L31.4753 48.9749L32.3098 47.2749Z" fill="white"/>
<path d="M44.2329 53.13L39.124 50.6221L38.288 52.325L43.3969 54.833L44.2329 53.13Z" fill="#60607F"/>
<path d="M43.3975 54.8312L38.2886 52.3232L37.4526 54.0262L42.5615 56.5342L43.3975 54.8312Z" fill="#42425E"/>
</g>
<g opacity="0.5">
<path d="M25.7664 18.4179L24.1091 17.6035L23.2948 19.2608L24.952 20.0751L25.7664 18.4179Z" fill="#2A2B42"/>
<path d="M26.5813 16.7577L24.9241 15.9434L24.1097 17.6006L25.767 18.415L26.5813 16.7577Z" fill="#2A2B42"/>
<path d="M25.7947 22.5438L24.1375 21.7295L23.3231 23.3867L24.9804 24.2011L25.7947 22.5438Z" fill="#2A2B42"/>
<path d="M24.9527 20.0746L23.2954 19.2603L22.4811 20.9175L24.1383 21.7319L24.9527 20.0746Z" fill="#2A2B42"/>
<path d="M27.3953 15.101L25.738 14.2866L24.9237 15.9439L26.5809 16.7582L27.3953 15.101Z" fill="#2A2B42"/>
<path d="M28.209 13.4481L26.5518 12.6338L25.7374 14.291L27.3947 15.1054L28.209 13.4481Z" fill="#2A2B42"/>
<path d="M30.6812 12.6044L29.0239 11.79L28.2096 13.4473L29.8668 14.2616L30.6812 12.6044Z" fill="#2A2B42"/>
<path d="M33.1524 11.7601L31.4951 10.9458L30.6808 12.6031L32.338 13.4174L33.1524 11.7601Z" fill="#2A2B42"/>
<path d="M35.6231 10.9198L33.9658 10.1055L33.1515 11.7627L34.8087 12.5771L35.6231 10.9198Z" fill="#2A2B42"/>
<path d="M38.0955 10.0761L36.4382 9.26172L35.6239 10.919L37.2811 11.7333L38.0955 10.0761Z" fill="#2A2B42"/>
<path d="M43.9385 19.1137L42.2812 18.2993L41.4669 19.9566L43.1242 20.7709L43.9385 19.1137Z" fill="#2A2B42"/>
<path d="M43.095 16.6478L41.4377 15.8335L40.6234 17.4908L42.2807 18.3051L43.095 16.6478Z" fill="#2A2B42"/>
<path d="M42.2522 14.1747L40.595 13.3604L39.7806 15.0176L41.4379 15.832L42.2522 14.1747Z" fill="#2A2B42"/>
<path d="M41.4097 11.702L39.7524 10.8877L38.9381 12.545L40.5954 13.3593L41.4097 11.702Z" fill="#2A2B42"/>
<path d="M39.7525 10.8856L38.0952 10.0713L37.2809 11.7285L38.9381 12.5429L39.7525 10.8856Z" fill="#2A2B42"/>
<path d="M42.3382 26.5634L40.6809 25.749L39.8666 27.4063L41.5238 28.2206L42.3382 26.5634Z" fill="#2A2B42"/>
<path d="M43.1531 24.9032L41.4958 24.0889L40.6815 25.7461L42.3388 26.5605L43.1531 24.9032Z" fill="#2A2B42"/>
<path d="M41.5242 28.2201L39.8669 27.4058L39.0526 29.063L40.7099 29.8774L41.5242 28.2201Z" fill="#2A2B42"/>
<path d="M43.9668 23.2465L42.3096 22.4321L41.4952 24.0894L43.1525 24.9037L43.9668 23.2465Z" fill="#2A2B42"/>
<path d="M44.781 21.5897L43.1238 20.7754L42.3094 22.4326L43.9667 23.247L44.781 21.5897Z" fill="#2A2B42"/>
<path d="M29.1092 24.1767L27.4519 23.3623L26.6376 25.0196L28.2948 25.8339L29.1092 24.1767Z" fill="#2A2B42"/>
<path d="M30.7659 24.9892L29.1086 24.1748L28.2943 25.8321L29.9516 26.6464L30.7659 24.9892Z" fill="#2A2B42"/>
<path d="M27.4517 23.3602L25.7944 22.5459L24.9801 24.2032L26.6373 25.0175L27.4517 23.3602Z" fill="#2A2B42"/>
<path d="M32.4234 25.8056L30.7661 24.9912L29.9518 26.6485L31.609 27.4628L32.4234 25.8056Z" fill="#2A2B42"/>
<path d="M34.0804 26.6151L32.4231 25.8008L31.6087 27.458L33.266 28.2724L34.0804 26.6151Z" fill="#2A2B42"/>
<path d="M35.7376 27.431L34.0803 26.6167L33.266 28.274L34.9232 29.0883L35.7376 27.431Z" fill="#2A2B42"/>
<path d="M39.052 29.0604L37.3948 28.2461L36.5804 29.9034L38.2377 30.7177L39.052 29.0604Z" fill="#2A2B42"/>
<path d="M37.3951 28.2475L35.7378 27.4331L34.9234 29.0904L36.5807 29.9047L37.3951 28.2475Z" fill="#2A2B42"/>
<path d="M42.3097 22.4339L38.9953 20.8053L38.181 22.4625L34.8666 20.8338L34.0523 22.491L30.738 20.8624L29.9237 22.5196L26.6093 20.891L25.795 22.5481L39.0524 29.0626L42.3097 22.4339Z" fill="#DEDEFF"/>
<path d="M33.2098 20.017L29.8954 18.3884L29.0811 20.0456L25.7667 18.4169L24.1381 21.7313L25.7953 22.5456L26.6096 20.8884L29.924 22.517L30.7383 20.8599L32.3955 21.6742L33.2098 20.017Z" fill="#9F9FE0"/>
<path d="M30.7096 16.7351L27.3953 15.1064L25.7666 18.4208L29.081 20.0494L30.7096 16.7351Z" fill="#DEDEFF"/>
<path d="M28.209 13.4497L31.5233 15.0783L30.709 16.7355L34.0234 18.3641L33.2091 20.0213L34.8663 20.8356L35.6806 19.1784L38.9949 20.807L39.8092 19.1499L43.1236 20.7785L42.3093 22.4356L38.9949 20.807L38.1806 22.4642L34.8663 20.8356L34.0519 22.4928L32.3948 21.6785L33.2091 20.0213L29.8947 18.3927L30.709 16.7355L27.3947 15.1069L28.209 13.4497Z" fill="#8F67FF"/>
<path d="M34.8086 12.5753L35.6229 10.9182L40.5945 13.3611L39.7802 15.0183L41.4373 15.8326L40.623 17.4897L42.2802 18.3041L41.4659 19.9612L39.8087 19.1469L38.9944 20.8041L35.6801 19.1755L34.8658 20.8327L33.2086 20.0184L34.0229 18.3612L30.7085 16.7326L31.5228 15.0754L29.8657 14.2611L30.68 12.6039L32.3372 13.4182L33.1515 11.761L34.8086 12.5753Z" fill="#AE92FF"/>
</g>
<g opacity="0.5">
<path d="M81.4915 17.3626L83.9209 12.4105L85.5778 13.2203L86.3877 11.5728L91.349 14.0022L90.5299 15.6591L92.1868 16.469L91.377 18.1259L101.29 23.0034L98.8516 27.9555L97.1947 27.1457L98.8237 23.8412L97.1668 23.0314L95.5471 26.3358L93.8902 25.5167L95.5192 22.2122L90.5578 19.7734L89.748 21.4303L88.1004 20.6112L87.2813 22.2681L82.3292 19.8293L83.139 18.1817L81.4915 17.3626Z" fill="#8F8FB0"/>
<path d="M94.7063 23.8639L93.8926 25.5176L95.5463 26.3313L96.36 24.6776L94.7063 23.8639Z" fill="#66668B"/>
<path d="M98.0081 25.4947L97.1943 27.1484L98.848 27.9622L99.6618 26.3085L98.0081 25.4947Z" fill="#66668B"/>
<path d="M83.1438 18.1803L82.3301 19.834L87.2828 22.271L88.0965 20.6173L83.1438 18.1803Z" fill="#66668B"/>
<path d="M82.3025 15.7169L81.4888 17.3706L83.1425 18.1843L83.9562 16.5306L82.3025 15.7169Z" fill="#66668B"/>
<path d="M88.908 18.9698L88.0942 20.6235L89.7479 21.4373L90.5617 19.7836L88.908 18.9698Z" fill="#66668B"/>
<path d="M81.4951 17.3712L80.6814 19.0249L82.3351 19.8386L83.1488 18.1849L81.4951 17.3712Z" fill="#2A2B42"/>
<path d="M88.1006 20.6207L87.2869 22.2744L88.9406 23.0881L89.7543 21.4344L88.1006 20.6207Z" fill="#2A2B42"/>
<path d="M83.9762 20.6438L82.3287 19.834L81.5095 21.4909L83.1664 22.3007L84.814 23.1105L86.4709 23.9204L87.2807 22.2728L85.6331 21.463L83.9762 20.6438Z" fill="#2A2B42"/>
<path d="M88.8812 14.8533L87.2243 14.0342L86.4145 15.6911L84.7669 14.8812L83.9478 16.5288L85.6046 17.3387L84.7948 18.9955L86.4424 19.8054L87.2522 18.1578L88.9091 18.9676L89.7189 17.3107L88.0714 16.5009L88.8812 14.8533Z" fill="#2A2B42"/>
<path d="M83.1105 14.0644L83.9204 12.4168L82.2728 11.5977L81.463 13.2545L80.6438 14.9021L79.834 16.559L81.4909 17.3689L82.3007 15.7213L83.1105 14.0644Z" fill="#2A2B42"/>
<path d="M93.0238 18.9447L94.6807 19.7546L96.3283 20.5737L97.9852 21.3835L99.6328 22.1934L101.29 23.0125L102.099 21.3556L100.452 20.5458L98.795 19.736L97.1474 18.9168L95.4905 18.107L93.8429 17.2972L92.1861 16.478L91.3762 18.1349L93.0238 18.9447Z" fill="#2A2B42"/>
<path d="M101.29 23.0122L100.471 24.6598L99.6609 26.3167L98.8511 27.9643L100.499 28.7834L101.318 27.1265L102.128 25.4789L102.937 23.822L101.29 23.0122Z" fill="#2A2B42"/>
<path d="M95.5185 22.2186L93.8616 21.4088L92.214 20.5989L90.5571 19.7798L89.7473 21.4367L91.4042 22.2465L93.0518 23.0563L92.242 24.7132L93.8895 25.5231L94.7087 23.8755L95.5185 22.2186Z" fill="#2A2B42"/>
<path d="M98.8232 23.846L97.1663 23.0361L96.3565 24.6837L95.5466 26.3406L97.1942 27.1504L98.0134 25.4935L98.8232 23.846Z" fill="#2A2B42"/>
<path d="M93.8948 25.5328L93.0811 27.1865L94.7348 28.0002L95.5485 26.3465L93.8948 25.5328Z" fill="#2A2B42"/>
<path d="M97.1887 27.1564L96.375 28.8101L98.0287 29.6238L98.8424 27.9701L97.1887 27.1564Z" fill="#2A2B42"/>
<path d="M91.3499 14.0172L90.5361 15.6709L92.1898 16.4846L93.0036 14.8309L91.3499 14.0172Z" fill="#2A2B42"/>
<path d="M84.7439 10.7604L83.9302 12.4141L85.5839 13.2278L86.3976 11.5741L84.7439 10.7604Z" fill="#2A2B42"/>
<path d="M89.6917 13.1984L91.3486 14.0083L92.1584 12.3607L90.5108 11.5508L88.8539 10.7317L87.2063 9.92188L86.3872 11.5788L88.0441 12.3886L89.6917 13.1984Z" fill="#2A2B42"/>
</g>
<g opacity="0.5">
<path d="M53.9107 43.9142L52.2346 43.1094L51.4298 44.7854L53.1058 45.5903L53.9107 43.9142Z" fill="#2A2B42"/>
<path d="M56.3909 43.0466L54.7148 42.2417L53.91 43.9177L55.586 44.7226L56.3909 43.0466Z" fill="#2A2B42"/>
<path d="M58.8711 42.1769L57.1951 41.3721L56.3902 43.0481L58.0662 43.853L58.8711 42.1769Z" fill="#2A2B42"/>
<path d="M55.6524 48.8801L53.9763 48.0752L53.1715 49.7512L54.8475 50.5561L55.6524 48.8801Z" fill="#2A2B42"/>
<path d="M60.5471 42.9826L58.8711 42.1777L58.0662 43.8538L59.7423 44.6586L60.5471 42.9826Z" fill="#2A2B42"/>
<path d="M57.3279 49.6823L55.6519 48.8774L54.847 50.5535L56.523 51.3583L57.3279 49.6823Z" fill="#2A2B42"/>
<path d="M62.2229 43.7888L60.5469 42.9839L59.742 44.6599L61.418 45.4648L62.2229 43.7888Z" fill="#2A2B42"/>
<path d="M59.0037 50.4875L57.3276 49.6826L56.5228 51.3587L58.1988 52.1635L59.0037 50.4875Z" fill="#2A2B42"/>
<path d="M63.8987 44.5871L62.2227 43.7822L61.4178 45.4583L63.0938 46.2631L63.8987 44.5871Z" fill="#2A2B42"/>
<path d="M60.6797 51.2922L59.0037 50.4873L58.1988 52.1633L59.8748 52.9682L60.6797 51.2922Z" fill="#2A2B42"/>
<path d="M65.5745 45.3967L63.8984 44.5918L63.0936 46.2678L64.7696 47.0727L65.5745 45.3967Z" fill="#2A2B42"/>
<path d="M62.3555 52.1061L60.6794 51.3013L59.8746 52.9773L61.5506 53.7822L62.3555 52.1061Z" fill="#2A2B42"/>
<path d="M70.531 43.6623L68.855 42.8574L68.0501 44.5335L69.7262 45.3383L70.531 43.6623Z" fill="#2A2B42"/>
<path d="M64.1013 57.05L62.4253 56.2451L61.6204 57.9212L63.2965 58.726L64.1013 57.05Z" fill="#2A2B42"/>
<path d="M66.3748 43.7319L68.0464 44.5451L62.4256 56.2498L60.758 55.4282L66.3748 43.7319Z" fill="#2A2B42"/>
<path d="M69.7261 45.3428L71.3977 46.156L65.7769 57.8607L64.1093 57.039L69.7261 45.3428Z" fill="#2A2B42"/>
<path d="M54.7815 46.4055L53.1055 45.6006L52.3006 47.2766L53.9766 48.0815L54.7815 46.4055Z" fill="#2A2B42"/>
<path d="M74.0105 53.5749L72.3345 52.77L71.5296 54.4461L73.2056 55.2509L74.0105 53.5749Z" fill="#2A2B42"/>
<path d="M71.5303 54.443L69.8542 53.6382L69.0494 55.3142L70.7254 56.1191L71.5303 54.443Z" fill="#2A2B42"/>
<path d="M69.8635 53.6437L68.1875 52.8389L67.3826 54.5149L69.0587 55.3198L69.8635 53.6437Z" fill="#2A2B42"/>
<path d="M71.4729 50.2931L69.7969 49.4883L68.992 51.1643L70.6681 51.9692L71.4729 50.2931Z" fill="#2A2B42"/>
<path d="M73.148 51.0925L71.4719 50.2876L70.6671 51.9636L72.3431 52.7685L73.148 51.0925Z" fill="#2A2B42"/>
<path d="M53.9102 43.9248L55.5859 44.7295L57.2616 45.5342L56.4569 47.21L63.1598 50.4288L62.3551 52.1046L53.968 48.0769L54.7812 46.4053L53.1054 45.6005L53.9102 43.9248Z" fill="#FFF6E3"/>
<path d="M63.9642 48.7472L57.2612 45.5283L56.4565 47.2041L63.1594 50.4229L63.9642 48.7472Z" fill="#EEC55E"/>
<path d="M72.335 52.7673L70.6589 51.9624L69.8541 53.6384L71.5301 54.4433L72.335 52.7673Z" fill="#896649"/>
<path d="M70.6677 51.9621L68.9917 51.1572L68.1868 52.8333L69.8629 53.6381L70.6677 51.9621Z" fill="#7F532B"/>
<path d="M64.7695 47.0778L56.3909 43.0542L55.5862 44.7299L63.9648 48.7535L64.7695 47.0778Z" fill="#DD8833"/>
<path d="M67.3159 50.3579L65.6401 49.5532L64.0307 52.9047L65.7064 53.7094L67.3159 50.3579Z" fill="#EEC55E"/>
<path d="M65.706 53.7061L64.0303 52.9014L62.4209 56.2528L64.0966 57.0575L65.706 53.7061Z" fill="#DD8833"/>
<path d="M69.726 45.334L68.0503 44.5293L65.6402 49.548L67.3159 50.3527L69.726 45.334Z" fill="#DD8833"/>
</g>
</g>
<defs>
<clipPath id="clip0_2435_53001">
<rect width="99" height="67" fill="white"/>
</clipPath>
</defs>
</svg>
