<svg width="1692" height="693" viewBox="0 0 1692 693" fill="none" xmlns="http://www.w3.org/2000/svg">
<g filter="url(#filter0_i_2237_1458)">
<path d="M0.836914 2.646L252.273 108.958C264.116 113.966 271.811 125.574 271.811 138.432L271.811 365.722C271.811 378.349 279.236 389.795 290.766 394.942L450.091 466.069C461.621 471.216 469.046 482.663 469.046 495.289L469.046 692.728" stroke="#F9F9F9" stroke-width="3"/>
</g>
<rect width="263.275" height="5.66209" transform="matrix(0.900541 0.43477 0.271916 -0.962321 0 5.44873)" fill="url(#paint0_linear_2237_1458)"/>
<rect width="162.799" height="4.44371" transform="matrix(-9.12291e-09 -1 -1 -1.9412e-07 471.268 692.728)" fill="url(#paint1_linear_2237_1458)"/>
<g filter="url(#filter1_i_2237_1458)">
<path d="M1690.43 2.64551L1438.99 108.958C1427.15 113.965 1419.46 125.574 1419.46 138.431L1419.46 365.721C1419.46 378.348 1412.03 389.794 1400.5 394.941L1241.18 466.068C1229.65 471.216 1222.22 482.662 1222.22 495.289L1222.22 692.727" stroke="#F9F9F9" stroke-width="3"/>
</g>
<rect width="263.275" height="5.66209" transform="matrix(-0.900541 0.43477 -0.271916 -0.962321 1691.27 5.44873)" fill="url(#paint2_linear_2237_1458)"/>
<rect x="1220" y="692.728" width="162.799" height="4.44371" transform="rotate(-90 1220 692.728)" fill="url(#paint3_linear_2237_1458)"/>
<g filter="url(#filter2_i_2237_1458)">
<circle cx="4" cy="4" r="4" transform="matrix(1 0 0 -1 1185.34 137.3)" stroke="#F9F9F9" stroke-width="3"/>
</g>
<g filter="url(#filter3_i_2237_1458)">
<circle cx="4" cy="4" r="4" transform="matrix(1 0 0 -1 244.975 137.3)" stroke="#F9F9F9" stroke-width="3"/>
</g>
<defs>
<filter id="filter0_i_2237_1458" x="0.25293" y="1.26465" width="470.293" height="691.463" filterUnits="userSpaceOnUse" color-interpolation-filters="sRGB">
<feFlood flood-opacity="0" result="BackgroundImageFix"/>
<feBlend mode="normal" in="SourceGraphic" in2="BackgroundImageFix" result="shape"/>
<feColorMatrix in="SourceAlpha" type="matrix" values="0 0 0 0 0 0 0 0 0 0 0 0 0 0 0 0 0 0 127 0" result="hardAlpha"/>
<feOffset/>
<feGaussianBlur stdDeviation="1"/>
<feComposite in2="hardAlpha" operator="arithmetic" k2="-1" k3="1"/>
<feColorMatrix type="matrix" values="0 0 0 0 0 0 0 0 0 0 0 0 0 0 0 0 0 0 0.25 0"/>
<feBlend mode="normal" in2="shape" result="effect1_innerShadow_2237_1458"/>
</filter>
<filter id="filter1_i_2237_1458" x="1220.72" y="1.26416" width="470.293" height="691.463" filterUnits="userSpaceOnUse" color-interpolation-filters="sRGB">
<feFlood flood-opacity="0" result="BackgroundImageFix"/>
<feBlend mode="normal" in="SourceGraphic" in2="BackgroundImageFix" result="shape"/>
<feColorMatrix in="SourceAlpha" type="matrix" values="0 0 0 0 0 0 0 0 0 0 0 0 0 0 0 0 0 0 127 0" result="hardAlpha"/>
<feOffset/>
<feGaussianBlur stdDeviation="1"/>
<feComposite in2="hardAlpha" operator="arithmetic" k2="-1" k3="1"/>
<feColorMatrix type="matrix" values="0 0 0 0 0 0 0 0 0 0 0 0 0 0 0 0 0 0 0.25 0"/>
<feBlend mode="normal" in2="shape" result="effect1_innerShadow_2237_1458"/>
</filter>
<filter id="filter2_i_2237_1458" x="1183.84" y="127.8" width="11" height="11" filterUnits="userSpaceOnUse" color-interpolation-filters="sRGB">
<feFlood flood-opacity="0" result="BackgroundImageFix"/>
<feBlend mode="normal" in="SourceGraphic" in2="BackgroundImageFix" result="shape"/>
<feColorMatrix in="SourceAlpha" type="matrix" values="0 0 0 0 0 0 0 0 0 0 0 0 0 0 0 0 0 0 127 0" result="hardAlpha"/>
<feOffset/>
<feGaussianBlur stdDeviation="1"/>
<feComposite in2="hardAlpha" operator="arithmetic" k2="-1" k3="1"/>
<feColorMatrix type="matrix" values="0 0 0 0 0 0 0 0 0 0 0 0 0 0 0 0 0 0 0.25 0"/>
<feBlend mode="normal" in2="shape" result="effect1_innerShadow_2237_1458"/>
</filter>
<filter id="filter3_i_2237_1458" x="243.475" y="127.8" width="11" height="11" filterUnits="userSpaceOnUse" color-interpolation-filters="sRGB">
<feFlood flood-opacity="0" result="BackgroundImageFix"/>
<feBlend mode="normal" in="SourceGraphic" in2="BackgroundImageFix" result="shape"/>
<feColorMatrix in="SourceAlpha" type="matrix" values="0 0 0 0 0 0 0 0 0 0 0 0 0 0 0 0 0 0 127 0" result="hardAlpha"/>
<feOffset/>
<feGaussianBlur stdDeviation="1"/>
<feComposite in2="hardAlpha" operator="arithmetic" k2="-1" k3="1"/>
<feColorMatrix type="matrix" values="0 0 0 0 0 0 0 0 0 0 0 0 0 0 0 0 0 0 0.25 0"/>
<feBlend mode="normal" in2="shape" result="effect1_innerShadow_2237_1458"/>
</filter>
<linearGradient id="paint0_linear_2237_1458" x1="-3.79326e-06" y1="2.89539" x2="263.275" y2="2.89593" gradientUnits="userSpaceOnUse">
<stop offset="0.17166" stop-color="#F9F9FB"/>
<stop offset="1" stop-color="#F9F9FB" stop-opacity="0"/>
</linearGradient>
<linearGradient id="paint1_linear_2237_1458" x1="-2.34561e-06" y1="2.27235" x2="162.799" y2="2.27262" gradientUnits="userSpaceOnUse">
<stop offset="0.17166" stop-color="#F9F9FB"/>
<stop offset="1" stop-color="#F9F9FB" stop-opacity="0"/>
</linearGradient>
<linearGradient id="paint2_linear_2237_1458" x1="-3.79326e-06" y1="2.89539" x2="263.275" y2="2.89593" gradientUnits="userSpaceOnUse">
<stop offset="0.17166" stop-color="#F9F9FB"/>
<stop offset="1" stop-color="#F9F9FB" stop-opacity="0"/>
</linearGradient>
<linearGradient id="paint3_linear_2237_1458" x1="1220" y1="695" x2="1382.8" y2="695" gradientUnits="userSpaceOnUse">
<stop offset="0.17166" stop-color="#F9F9FB"/>
<stop offset="1" stop-color="#F9F9FB" stop-opacity="0"/>
</linearGradient>
</defs>
</svg>
