<svg width="99" height="67" viewBox="0 0 99 67" fill="none" xmlns="http://www.w3.org/2000/svg">
<g clip-path="url(#clip0_2435_55115)">
<g opacity="0.5">
<path d="M84.511 3.68034H74.7945V1.72217L70.9868 1.69644V-0.247432L66.8646 -0.233139L66.8903 -4.13232H84.511V3.68034Z" fill="white"/>
<path d="M82.6206 1.71924L74.2505 1.71924V-8.02301L82.6206 -8.02301V1.71924Z" fill="white"/>
<path d="M66.9759 7.52637H64.8828V-0.231985H66.9759V7.52637Z" fill="#36355C"/>
<path d="M70.9863 4.39307L66.7527 4.39307V1.61394L70.9863 1.61394V4.39307Z" fill="#36355C"/>
<path d="M74.7942 6.34131L70.5605 6.34131V3.58655L74.7942 3.58655V6.34131Z" fill="#36355C"/>
<path d="M80.663 19.2866H74.7942V5.59659H80.663V19.2866Z" fill="#36355C"/>
<path d="M78.6674 33.5161H63.0535V26.2952H78.6674V33.5161Z" fill="#799EFF"/>
<path d="M63.0875 36.7422H59.2598V26.897H63.0875V36.7422Z" fill="#A06562"/>
<path d="M77.2579 19.9224H67.2527V13.9392H77.2579V19.9224Z" fill="#A06562"/>
<path d="M74.7939 16.4087H65.0688V7.31536L74.7939 7.31536V16.4087Z" fill="#A06562"/>
<path d="M73.8422 14.457L66.4897 14.457V5.60954L73.8422 5.60954V14.457Z" fill="#A06562"/>
<path d="M67.0474 50.2974H61.2043V48.3735H67.0474V50.2974Z" fill="#A7BFFF"/>
<path d="M61.2012 50.2974H59.2773V48.3735H61.2012V50.2974Z" fill="#2A2B42"/>
<path d="M63.0881 48.3745H61.2014V34.7474H63.0881V48.3745Z" fill="#2A2B42"/>
<path d="M59.2602 36.7422H57.3735V26.897H59.2602V36.7422Z" fill="#2A2B42"/>
<path d="M61.2008 26.8916H59.2598V23.0896H61.2008V26.8916Z" fill="#2A2B42"/>
<path d="M63.0881 23.0874H61.2014V19.2854H63.0881V23.0874Z" fill="#2A2B42"/>
<path d="M64.9751 17.3286H63.0884V11.4341H64.9751V17.3286Z" fill="#2A2B42"/>
<path d="M64.9751 3.67725L63.0884 3.67725V-0.236234L64.9751 -0.236234V3.67725Z" fill="#2A2B42"/>
<path d="M86.3977 7.56787H84.511V-4.12683H86.3977V7.56787Z" fill="#2A2B42"/>
<path d="M63.0881 11.439H61.2014V3.68061H63.0881V11.439Z" fill="#2A2B42"/>
<path d="M67.0469 19.2866H63.0906V17.3285H67.0469V19.2866Z" fill="#2A2B42"/>
<path d="M67.0472 52.2236H61.2041V50.2998H67.0472V52.2236Z" fill="#2A2B42"/>
<path d="M80.6426 58.0459H76.6863V56.122H80.6426V58.0459Z" fill="#2A2B42"/>
<path d="M67.0469 48.3745H63.0906V44.481H67.0469V48.3745Z" fill="white"/>
<path d="M68.9913 44.481H63.0911V40.5875H68.9913V44.481Z" fill="#D7E2FF"/>
<path d="M70.861 40.5908H63.0884V36.5944H70.861V40.5908Z" fill="#D7E2FF"/>
<path d="M72.8047 36.6396H63.0911V34.7472H72.8047V36.6396Z" fill="#D7E2FF"/>
<path d="M67.0469 34.7422H63.0906V32.8498H67.0469V34.7422Z" fill="#D7E2FF"/>
<path d="M80.6453 50.2974H74.7451V46.4039H80.6453V50.2974Z" fill="#D7E2FF"/>
<path d="M80.6426 56.1167H76.6863V54.1928H80.6426V56.1167Z" fill="#A7BFFF"/>
<path d="M80.6426 54.1909H76.6863V50.2974H80.6426V54.1909Z" fill="white"/>
<path d="M68.9911 50.2974H67.05V44.48H68.9911V50.2974Z" fill="#2A2B42"/>
<path d="M74.7455 50.2974H72.8044V46.4039H74.7455V50.2974Z" fill="#2A2B42"/>
<path d="M72.8019 46.4038H70.8608V44.4799H72.8019V46.4038Z" fill="#2A2B42"/>
<path d="M61.2008 38.668H59.2598V36.7441H61.2008V38.668Z" fill="#2A2B42"/>
<path d="M84.5277 46.4038H82.5867V44.4799H84.5277V46.4038Z" fill="#2A2B42"/>
<path d="M76.6861 56.1167H74.7451V50.2994H76.6861V56.1167Z" fill="#2A2B42"/>
<path d="M82.5868 56.1167H80.6458V44.4792H82.5868V56.1167Z" fill="#2A2B42"/>
<path d="M80.6424 44.481H78.7014V38.6636H80.6424V44.481Z" fill="#2A2B42"/>
<path d="M78.7013 34.7139H76.7231V30.809H78.7013V34.7139Z" fill="#2A2B42"/>
<path d="M80.6627 23.0874H78.6846V19.2854H80.6627V23.0874Z" fill="#2A2B42"/>
<path d="M82.5867 19.2866H80.6628V13.5064H82.5867V19.2866Z" fill="#2A2B42"/>
<path d="M84.5793 13.5117H82.5867V7.56861H84.5793V13.5117Z" fill="#2A2B42"/>
<path d="M82.5868 23.0874H80.6086V21.1092H82.5868V23.0874Z" fill="#2A2B42"/>
<path d="M78.7013 19.2866H76.7231V17.3084H78.7013V19.2866Z" fill="#2A2B42"/>
<path d="M86.4686 44.481H84.5276V28.9643H86.4686V44.481Z" fill="#2A2B42"/>
<path d="M84.5277 28.9648H82.5867V23.0903H84.5277V28.9648Z" fill="#2A2B42"/>
<path d="M80.6457 46.4038H72.8044V44.4799H80.6457V46.4038Z" fill="#D7E2FF"/>
<path d="M78.7021 44.481H70.8608V36.6397H78.7021V44.481Z" fill="#D7E2FF"/>
<path d="M70.8604 44.481H68.988V40.5875H70.8604V44.481Z" fill="#2A2B42"/>
<path d="M78.7015 50.2974H74.7451V46.4039H78.7015V50.2974Z" fill="white"/>
<path d="M74.7455 46.4038H72.8044V44.4628H74.7455V46.4038Z" fill="white"/>
<path d="M72.8019 44.481H70.8608V40.5875H72.8019V44.481Z" fill="white"/>
<path d="M65.0321 44.481H63.0911V40.5646H65.0321V44.481Z" fill="white"/>
<path d="M84.5278 44.481H80.6458V28.9643H84.5278V44.481Z" fill="#A06562"/>
<path d="M80.729 38.668H78.7014V28.9715H80.729V38.668Z" fill="#87514E"/>
<path d="M63.0881 34.7422H61.2014V23.0875H63.0881V34.7422Z" fill="#87514E"/>
<path d="M70.861 32.855H63.0884V30.811H70.861V32.855Z" fill="#A7BFFF"/>
<path d="M67.0469 21.334H63.0906V19.2901H67.0469V21.334Z" fill="#A7BFFF"/>
<path d="M78.7013 21.334H76.7231V19.2901H78.7013V21.334Z" fill="#A7BFFF"/>
<path d="M78.7023 27.0259L63.0884 27.0259V21.0542H78.7023V27.0259Z" fill="#A7BFFF"/>
<path d="M76.7236 34.7422H67.0471V32.8498H76.7236V34.7422Z" fill="#A7BFFF"/>
<path d="M82.5867 28.9648L67.0471 28.9648V23.0903H82.5867V28.9648Z" fill="#A7BFFF"/>
<path d="M78.7013 30.8618H76.7231V28.4256H78.7013V30.8618Z" fill="#A7BFFF"/>
<path d="M78.702 36.6396H72.8018V34.7158H78.702V36.6396Z" fill="#799EFF"/>
<path d="M76.7263 34.7617H70.8633V32.8379H76.7263V34.7617Z" fill="#799EFF"/>
<path d="M76.7236 21.0527H67.0471V19.289H76.7236V21.0527Z" fill="#87514E"/>
<path d="M67.0501 17.3286H64.9775V13.2979H67.0501V17.3286Z" fill="#87514E"/>
<path d="M68.9796 19.5166H67.0471V13.2991H68.9796V19.5166Z" fill="#87514E"/>
<path d="M70.9122 13.2979H68.9797V9.49586H70.9122V13.2979Z" fill="#87514E"/>
<path d="M68.9766 13.2979H66.9756V9.49586H68.9766V13.2979Z" fill="#2A2B42"/>
<path d="M66.9757 13.2979H64.9746V11.3969H66.9757V13.2979Z" fill="white"/>
<path d="M66.9757 11.4004H64.9746V9.49939H66.9757V11.4004Z" fill="#D7E2FF"/>
<path d="M76.7266 15.4121H74.7942V13.5111H76.7266V15.4121Z" fill="white"/>
<path d="M76.7266 13.5117H74.7942V11.6107H76.7266V13.5117Z" fill="#D7E2FF"/>
<path d="M74.794 15.4121H72.8616V11.6101H74.794V15.4121Z" fill="#2A2B42"/>
<path d="M76.7266 9.70459H74.7942V7.77215H76.7266V9.70459Z" fill="#87514E"/>
<path d="M74.794 7.77881H72.8616V5.61768H74.794V7.77881Z" fill="#87514E"/>
<path d="M66.9757 7.59668H64.9775V5.59849H66.9757V7.59668Z" fill="#87514E"/>
<path d="M70.9862 5.61279L66.9727 5.61279V3.68035L70.9862 3.68035V5.61279Z" fill="#87514E"/>
<path d="M78.7013 17.3096H76.7231V13.5076H78.7013V17.3096Z" fill="#87514E"/>
<path d="M82.5867 13.5117H80.6628V9.50104H82.5867V13.5117Z" fill="#87514E"/>
<path d="M68.9766 9.5H66.9756V7.599H68.9766V9.5Z" fill="#282828"/>
<path d="M66.9757 9.5H64.9746V7.599H66.9757V9.5Z" fill="#563332"/>
<path d="M72.8618 9.70459H74.7942V11.6056H72.8618V9.70459Z" fill="#282828"/>
<path d="M74.7907 9.70459H76.7231V11.6056H74.7907V9.70459Z" fill="#563332"/>
<path d="M64.9751 11.439H63.0884V3.68061H64.9751V11.439Z" fill="#36355C"/>
<path d="M70.9832 1.69385L66.8611 1.69385V-0.250028L70.9832 -0.250028V1.69385Z" fill="#2C2B43"/>
<path d="M74.794 3.68066L70.9863 3.68066V1.72535L74.794 1.72535V3.68066Z" fill="#2C2B43"/>
<path d="M78.6019 5.61279L74.7942 5.61279V3.68035L78.6019 3.68035V5.61279Z" fill="#2C2B43"/>
<path d="M82.5867 9.57031H80.6628V7.56666H82.5867V9.57031Z" fill="#2C2B43"/>
<path d="M84.5106 5.61279L78.6018 5.61279V3.68035L84.5106 3.68035V5.61279Z" fill="#D7E2FF"/>
<path d="M84.5106 3.68066L80.6628 3.68066V-0.238533L84.5106 -0.238533V3.68066Z" fill="#D7E2FF"/>
<path d="M84.5106 7.56787L80.6628 7.56787V5.51537H84.5106V7.56787Z" fill="#D7E2FF"/>
</g>
<g opacity="0.5">
<path d="M30.8203 22.9178H44.6333V13.147H32.7499V15.1109L30.8203 15.128V22.9178Z" fill="white"/>
<path d="M32.7498 19.0146H37.2522V13.1573H32.7498V19.0146Z" fill="white"/>
<path d="M44.5505 24.8438H46.5515V17.0654H44.5505V24.8438Z" fill="#FFF3B5"/>
<path d="M40.5254 21.7036H44.7705V18.9993H40.5254V21.7036Z" fill="#FFF3B5"/>
<path d="M36.7063 23.6553H40.9514V20.9853H36.7063V23.6553Z" fill="#FFF3B5"/>
<path d="M30.8228 36.6455H36.7087V22.9155H30.8228V36.6455Z" fill="#FFF3B5"/>
<path d="M48.4433 54.1328H52.2825V44.2619H48.4433V54.1328Z" fill="#E7B7B5"/>
<path d="M34.2362 37.2744H44.27V31.2741H34.2362V37.2744Z" fill="#E7B7B5"/>
<path d="M36.7062 33.7515H46.457V24.6353H36.7062V33.7515Z" fill="#E7B7B5"/>
<path d="M37.6613 31.7905H45.0366V22.9202H37.6613V31.7905Z" fill="#E7B7B5"/>
<path d="M44.476 67.7363H50.3362V65.8067H44.476V67.7363Z" fill="#B1CCFF"/>
<path d="M50.3365 67.7363H52.2661V65.8067H50.3365V67.7363Z" fill="#2A2B42"/>
<path d="M48.4438 65.8101H50.3362V52.1429H48.4438V65.8101Z" fill="#2A2B42"/>
<path d="M52.2829 54.1328H54.1753V44.2619H52.2829V54.1328Z" fill="#2A2B42"/>
<path d="M50.3357 44.2666H52.2825V40.4532H50.3357V44.2666Z" fill="#2A2B42"/>
<path d="M48.4438 40.4526H50.3362V34.7237H48.4438V40.4526Z" fill="#2A2B42"/>
<path d="M46.5514 34.6714H48.4438V28.7626H46.5514V34.6714Z" fill="#2A2B42"/>
<path d="M32.7496 13.147H38.6384V11.1859H32.7496V13.147Z" fill="#2A2B42"/>
<path d="M25.0719 24.8848H26.9644V17.0521H25.0719V24.8848Z" fill="#2A2B42"/>
<path d="M26.964 17.0659H28.8936V15.1049H26.964V17.0659Z" fill="#2A2B42"/>
<path d="M28.8934 15.1211H32.7498V13.1601H28.8934V15.1211Z" fill="#2A2B42"/>
<path d="M38.6386 13.147H42.7693V11.1859H38.6386V13.147Z" fill="#2A2B42"/>
<path d="M48.4438 28.769H50.3362V19.0525H48.4438V28.769Z" fill="#2A2B42"/>
<path d="M44.4761 36.6455H48.4438V34.6816H44.4761V36.6455Z" fill="#2A2B42"/>
<path d="M44.4761 65.8101H48.4438V61.9052H44.4761V65.8101Z" fill="#E7B7B5"/>
<path d="M42.5293 59.9492H48.4438V57.9853H42.5293V59.9492Z" fill="#B1CCFF"/>
<path d="M42.5293 61.9102H48.4438V59.9463H42.5293V61.9102Z" fill="#C98B8B"/>
<path d="M40.6483 57.9976H48.4438V53.9897H40.6483V57.9976Z" fill="#B1CCFF"/>
<path d="M38.7045 54.0371H48.4468V52.139H38.7045V54.0371Z" fill="#B1CCFF"/>
<path d="M44.4761 52.1396H48.4438V50.2415H44.4761V52.1396Z" fill="#B1CCFF"/>
<path d="M30.8404 67.7329H36.7549V63.828H30.8404V67.7329Z" fill="#C98B8B"/>
<path d="M42.5264 67.7329H44.4731V61.8984H42.5264V67.7329Z" fill="#2A2B42"/>
<path d="M36.7576 67.7329H38.7043V63.828H36.7576V67.7329Z" fill="#2A2B42"/>
<path d="M38.7044 63.833H40.6511V61.9034H38.7044V63.833Z" fill="#2A2B42"/>
<path d="M50.3357 56.0649H52.2825V54.1354H50.3357V56.0649Z" fill="#2A2B42"/>
<path d="M26.9468 63.833H28.8936V61.9034H26.9468V63.833Z" fill="#2A2B42"/>
<path d="M28.8907 73.5684H30.8374V61.8994H28.8907V73.5684Z" fill="#2A2B42"/>
<path d="M30.8404 61.9004H32.7871V56.0659H30.8404V61.9004Z" fill="#2A2B42"/>
<path d="M30.823 40.4526H32.8069V36.6392H30.823V40.4526Z" fill="#2A2B42"/>
<path d="M28.8907 36.6455H30.8203V30.8482H28.8907V36.6455Z" fill="#2A2B42"/>
<path d="M26.964 30.8418H28.8936V24.8815H26.964V30.8418Z" fill="#2A2B42"/>
<path d="M28.8909 40.4561H30.8748V38.4722H28.8909V40.4561Z" fill="#2A2B42"/>
<path d="M32.7869 36.6455H34.7708V34.6616H32.7869V36.6455Z" fill="#2A2B42"/>
<path d="M25 61.9004H26.9468L26.9468 46.3408H25L25 61.9004Z" fill="#2A2B42"/>
<path d="M26.9468 46.3394H28.8936V40.4506H26.9468V46.3394Z" fill="#2A2B42"/>
<path d="M30.8378 63.833H38.7019V61.9034H30.8378V63.833Z" fill="#B1CCFF"/>
<path d="M32.787 61.9004H40.6511V54.0363H32.787V61.9004Z" fill="#B1CCFF"/>
<path d="M40.6482 61.9004H42.5264V57.9955H40.6482V61.9004Z" fill="#2A2B42"/>
<path d="M32.7871 67.7329H36.7549V63.828H32.7871V67.7329Z" fill="#E7B7B5"/>
<path d="M36.7576 63.833H38.7043V61.8863H36.7576V63.833Z" fill="#C98B8B"/>
<path d="M32.7013 65.7812H34.8081V63.8345H32.7013V65.7812Z" fill="#C98B8B"/>
<path d="M38.7044 61.9004H40.6511V57.9955H38.7044V61.9004Z" fill="#789BFF"/>
<path d="M46.4971 59.9492H48.4438V57.9739H46.4971V59.9492Z" fill="#C98B8B"/>
<path d="M46.4971 61.9199H48.4438V59.9446H46.4971V61.9199Z" fill="#E7B7B5"/>
<path d="M26.9469 61.9004H30.8403L30.8403 46.3408H26.9469V61.9004Z" fill="#E7B7B5"/>
<path d="M30.8404 56.0649H32.7871V48.238H30.8404V56.0649Z" fill="#C98B8B"/>
<path d="M48.4438 52.1396H50.3362V40.4507H48.4438V52.1396Z" fill="#C98B8B"/>
<path d="M40.6483 50.2422H48.4438V43.3986H40.6483V50.2422Z" fill="white"/>
<path d="M44.4761 38.6895H48.4438V36.6398H44.4761V38.6895Z" fill="white"/>
<path d="M32.7869 38.6895H34.7708V36.6398H32.7869V38.6895Z" fill="white"/>
<path d="M32.7874 54.0371H38.7019V52.1075H32.7874V54.0371Z" fill="white"/>
<path d="M32.7871 44.3975H48.4438V38.4086H32.7871V44.3975Z" fill="white"/>
<path d="M34.7707 52.1396H44.4758V43.8467H34.7707V52.1396Z" fill="white"/>
<path d="M28.8907 46.3394H44.4731V40.4506H28.8907V46.3394Z" fill="white"/>
<path d="M32.7869 48.2397H34.7708V46.3416H32.7869V48.2397Z" fill="white"/>
<path d="M32.7871 54.0371H34.771V48.2398H32.7871V54.0371Z" fill="#D7E2FF"/>
<path d="M44.4761 38.4087H48.4438V36.6392H44.4761V38.4087Z" fill="#D7E2FF"/>
<path d="M46.46 40.4526H48.4438V38.4087H46.46V40.4526Z" fill="#D7E2FF"/>
<path d="M32.7727 38.4087H34.7566V36.6421H32.7727V38.4087Z" fill="#D7E2FF"/>
<path d="M28.8909 42.2192H30.8748V40.4526H28.8909V42.2192Z" fill="#D7E2FF"/>
<path d="M30.8404 48.2397H32.7871V46.3416H30.8404V48.2397Z" fill="#D7E2FF"/>
<path d="M34.7707 38.4087H44.4758V36.6392H34.7707V38.4087Z" fill="#C98B8B"/>
<path d="M44.4733 34.6777H46.5515V30.6356H44.4733V34.6777Z" fill="#C98B8B"/>
<path d="M42.5405 36.8721H44.4758V30.6374H42.5405V36.8721Z" fill="#C98B8B"/>
<path d="M40.6025 30.6309H42.5378V26.8174H40.6025V30.6309Z" fill="#C98B8B"/>
<path d="M42.5406 30.6309H44.5474V26.8174H42.5406V30.6309Z" fill="#2A2B42"/>
<path d="M44.5472 30.6309H46.554V28.7241H44.5472V30.6309Z" fill="white"/>
<path d="M44.5472 28.7241H46.554V26.8174H44.5472V28.7241Z" fill="#D7E2FF"/>
<path d="M34.7734 32.7456H36.7087V30.8389H34.7734V32.7456Z" fill="white"/>
<path d="M34.7734 30.8418H36.7087V28.9351H34.7734V30.8418Z" fill="#D7E2FF"/>
<path d="M36.7061 32.7456H38.6414V28.9322H36.7061V32.7456Z" fill="#2A2B42"/>
<path d="M34.7734 27.0283H36.7087V25.093H34.7734V27.0283Z" fill="#C98B8B"/>
<path d="M36.7061 25.0894H38.6414V22.9196H36.7061V25.0894Z" fill="#C98B8B"/>
<path d="M44.5505 24.9141H46.5515V22.913H44.5505V24.9141Z" fill="#C98B8B"/>
<path d="M40.5253 22.9209H44.5503V20.9856H40.5253V22.9209Z" fill="#C98B8B"/>
<path d="M32.7869 34.6558H34.7708V30.8423H32.7869V34.6558Z" fill="#C98B8B"/>
<path d="M28.8907 30.8418H30.8203V26.8197H28.8907V30.8418Z" fill="#C98B8B"/>
<path d="M42.5406 26.8208H44.5474V24.9141H42.5406V26.8208Z" fill="#282828"/>
<path d="M44.5472 26.8208H46.554V24.9141H44.5472V26.8208Z" fill="#844D4D"/>
<path d="M38.644 27.0283H36.7087V28.935H38.644V27.0283Z" fill="#282828"/>
<path d="M36.7061 27.0283H34.7708V28.935H36.7061V27.0283Z" fill="#844D4D"/>
<path d="M46.5514 28.769H48.4438V20.9907H46.5514V28.769Z" fill="#FFF3B5"/>
<path d="M40.5285 18.9985H44.6621V17.0489H40.5285V18.9985Z" fill="#FBCC52"/>
<path d="M36.7062 20.9917H40.5254V19.0307H36.7062V20.9917Z" fill="#FBCC52"/>
<path d="M32.8867 22.9209H36.7058V20.9856H32.8867V22.9209Z" fill="#FBCC52"/>
<path d="M28.8907 26.8208H30.8203V24.8855H28.8907V26.8208Z" fill="#FBCC52"/>
<path d="M30.8276 24.8848H34.8391V22.9013H30.8276V24.8848Z" fill="#FBCC52"/>
<path d="M28.8907 17.063H30.8203V15.1334H28.8907V17.063Z" fill="#D7E2FF"/>
<path d="M26.9642 22.9209H32.8901V20.9856H26.9642V22.9209Z" fill="#D7E2FF"/>
<path d="M26.964 20.9917H30.8203V17.0611H26.964V20.9917Z" fill="#D7E2FF"/>
<path d="M26.964 24.8848H30.8203V22.8265H26.964V24.8848Z" fill="#D7E2FF"/>
<path d="M28.8938 24.8848H30.8491V20.9999H28.8938V24.8848Z" fill="#B1CCFF"/>
<path d="M34.7534 19.0527H36.7087V17.0974H34.7534V19.0527Z" fill="#B1CCFF"/>
<path d="M32.8013 19.0527H34.7566V17.0974H32.8013V19.0527Z" fill="#B1CCFF"/>
<path d="M34.7534 17.0918H36.7087V15.1136H34.7534V17.0918Z" fill="#B1CCFF"/>
<path d="M38.5701 15.1367H40.5254V13.1585H38.5701V15.1367Z" fill="#B1CCFF"/>
<path d="M48.3809 19.0527H50.3362V15.0278H48.3809V19.0527Z" fill="#B1CCFF"/>
<path d="M46.5514 20.998H48.4438V13.1082H46.5514V20.998Z" fill="#B1CCFF"/>
<path d="M30.8514 22.9209H36.7087V19.0474H30.8514V22.9209Z" fill="#B1CCFF"/>
<path d="M36.7062 20.9917H40.5254V15.1201H36.7062V20.9917Z" fill="#B1CCFF"/>
<path d="M40.5279 19.0527H46.554V13.0267H40.5279V19.0527Z" fill="#B1CCFF"/>
<path d="M50.336 19.0527H52.2913V15.0278H50.336V19.0527Z" fill="#2A2B42"/>
<path d="M39.9535 13.147H44.7246V11.1859H39.9535V13.147Z" fill="#2A2B42"/>
<path d="M44.7273 13.147H46.6826V11.1859H44.7273V13.147Z" fill="#2A2B42"/>
<path d="M46.4885 13.147H48.4438V11.1859H46.4885V13.147Z" fill="#2A2B42"/>
<path d="M48.4438 15.0283H50.3362V13.1588H48.4438V15.0283Z" fill="#2A2B42"/>
<path d="M28.8853 24.8882H30.832V20.9833H28.8853V24.8882Z" fill="#789BFF"/>
<path d="M30.8431 22.9209H32.7898V19.0274H30.8431V22.9209Z" fill="#789BFF"/>
<path d="M32.7986 22.9209H34.7454V20.9742H32.7986V22.9209Z" fill="#789BFF"/>
</g>
</g>
<defs>
<clipPath id="clip0_2435_55115">
<rect width="99" height="67" fill="white"/>
</clipPath>
</defs>
</svg>
